
<svg class="animated" id="freepik_stories-pasta" xmlns="http://www.w3.org/2000/svg" viewBox="0 0 500 500" version="1.1" xmlns:xlink="http://www.w3.org/1999/xlink" xmlns:svgjs="http://svgjs.com/svgjs"><g id="freepik--background-simple--inject-35" class="animable animator-active" style="transform-origin: 253.895px 233.97px;"><path d="M90.13,129.39S27.42,173.84,20.77,274.85,87.11,430.49,145.38,424.21s77.93-36.09,126.3-44.57S400.73,403.3,457,350.32s26.87-169.12-26.1-249.92S195,20.28,90.13,129.39Z" style="fill: rgb(146, 227, 169); transform-origin: 253.895px 233.97px;" id="eloe1hrk0m7y" class="animable"></path><g id="elx851kq0s2rk"><path d="M90.13,129.39S27.42,173.84,20.77,274.85,87.11,430.49,145.38,424.21s77.93-36.09,126.3-44.57S400.73,403.3,457,350.32s26.87-169.12-26.1-249.92S195,20.28,90.13,129.39Z" style="fill: rgb(255, 255, 255); opacity: 0.7; transform-origin: 253.895px 233.97px;" class="animable"></path></g></g><g id="freepik--Pictures--inject-35" class="animable" style="transform-origin: 270.183px 146.523px;"><g id="elyw4i23k71i"><g style="opacity: 0.3; transform-origin: 270.183px 146.523px;" class="animable"><path d="M417.89,239.73H272.79a.5.5,0,0,1-.5-.5V53.83a.5.5,0,0,1,.5-.5h145.1a.5.5,0,0,1,.5.5v185.4A.5.5,0,0,1,417.89,239.73Zm-144.6-1h144.1V54.33H273.29Z" id="elu0srdvephas" class="animable" style="transform-origin: 345.34px 146.53px;"></path><path d="M267.5,239.73H122.4a.5.5,0,0,1-.5-.5V53.83a.5.5,0,0,1,.5-.5H267.5a.5.5,0,0,1,.5.5v185.4A.5.5,0,0,1,267.5,239.73Zm-144.6-1H267V54.33H122.9Z" id="el7j2d8s83zk7" class="animable" style="transform-origin: 194.95px 146.53px;"></path><path d="M272.79,110.46a.51.51,0,0,1-.47-.32.52.52,0,0,1,.29-.65c6.87-2.59,13.91-5,20.73-7.4,23-8,44.65-15.48,62.3-29.15,8.85-6.86,16.82-13.41,23.69-19.48a.5.5,0,0,1,.71,0,.51.51,0,0,1-.05.71c-6.89,6.08-14.87,12.65-23.73,19.52C338.47,87.5,316.71,95.05,293.66,103c-6.8,2.36-13.84,4.8-20.69,7.39A.57.57,0,0,1,272.79,110.46Z" id="elyia43e26fwo" class="animable" style="transform-origin: 326.226px 81.8861px;"></path><path d="M122.4,235.32a.5.5,0,0,1-.44-.26.51.51,0,0,1,.2-.68C141.07,224,176.58,200.69,202,160.51c17.18-27.12,42.64-40,65.29-49a.5.5,0,0,1,.65.28.51.51,0,0,1-.28.65c-22.5,8.93-47.79,21.69-64.82,48.57-25.57,40.37-61.24,63.82-80.23,74.21A.5.5,0,0,1,122.4,235.32Z" id="elwi9h8knclje" class="animable" style="transform-origin: 194.937px 173.397px;"></path><path d="M122.4,169.11a.5.5,0,0,1-.5-.47.51.51,0,0,1,.47-.53c16.93-1,39.45-8.31,50.67-37.71,3.2-8.36,3-14.82-.64-19.19-8.09-9.75-31.61-7.88-49.91-4.59a.5.5,0,1,1-.18-1c18.57-3.34,42.46-5.19,50.86,4.93,3.87,4.67,4.14,11.46.81,20.19-11.41,29.9-34.33,37.36-51.55,38.35Z" id="elhdv1x9cbkvd" class="animable" style="transform-origin: 149.091px 136.04px;"></path><path d="M210.72,91.92a76.49,76.49,0,0,1-15.92-1.74c-32.23-6.82-57.13-5.92-72.33-4a.49.49,0,0,1-.56-.43.49.49,0,0,1,.43-.56c15.28-2,40.29-2.88,72.67,4,23,4.87,38.74-1.54,47.92-7.76,12.36-8.38,18.21-19.8,19.57-27.69a.5.5,0,1,1,1,.17c-1.39,8.09-7.37,19.79-20,28.34A57.51,57.51,0,0,1,210.72,91.92Z" id="el21xnzjhz2le" class="animable" style="transform-origin: 192.706px 72.6221px;"></path><path d="M305.05,78.43a13.06,13.06,0,0,1-4.64-.85c-3.69-1.4-6-3.58-6.82-6.48-1.6-5.53,2.52-12.61,6.26-17.57a.51.51,0,0,1,.7-.1.5.5,0,0,1,.1.7c-3.6,4.78-7.58,11.56-6.1,16.7.74,2.57,2.84,4.53,6.22,5.81,13,4.93,27.46-14.5,33.08-23.08a.5.5,0,0,1,.7-.15.5.5,0,0,1,.14.69C329.58,61.9,317.3,78.42,305.05,78.43Z" id="el8lm1tq4pgt5" class="animable" style="transform-origin: 314.004px 65.8782px;"></path><path d="M349.3,239.73a.5.5,0,0,1-.34-.13.51.51,0,0,1,0-.71c1.17-1.27,2.32-2.45,3.54-3.6s2.85-2.65,4.46-4.1c13.93-12.61,35-31.67,25-58.92-4.82-13.11-16.73-21.12-27.24-28.19-9.05-6.08-16.86-11.34-17.84-18.46-.56-4.13,1.24-8.58,5.53-13.6,15.43-18.08,53.83-34.87,75.35-43.27a.5.5,0,1,1,.36.93c-21.43,8.36-59.66,25.07-74.95,43-4.09,4.79-5.82,9-5.3,12.82.92,6.67,8.56,11.81,17.41,17.76,10.63,7.15,22.69,15.26,27.62,28.68,10.24,27.88-12,48-25.25,60-1.6,1.45-3.12,2.82-4.44,4.08s-2.34,2.3-3.49,3.56A.49.49,0,0,1,349.3,239.73Z" id="el0a70c9kfeaav" class="animable" style="transform-origin: 377.628px 154.218px;"></path><path d="M417.89,172a.48.48,0,0,1-.36-.16c-1-1.08-2.15-2.25-3.35-3.49-9.91-10.29-24.9-25.83-26.64-41.45a14.78,14.78,0,0,1,3.13-11.27c5.77-7.17,18-9.83,27.17-10.8a.5.5,0,0,1,.55.45.5.5,0,0,1-.45.55c-9,1-20.94,3.53-26.49,10.42a13.78,13.78,0,0,0-2.91,10.54c1.7,15.28,16.54,30.68,26.36,40.86,1.2,1.25,2.33,2.42,3.36,3.51a.48.48,0,0,1,0,.7A.45.45,0,0,1,417.89,172Z" id="elt9m0vpz2dkd" class="animable" style="transform-origin: 402.908px 138.415px;"></path><path d="M299.22,239.73a.49.49,0,0,1-.49-.41c-2.52-14,5-25.58,12.28-36.73,6.5-10,12.63-19.36,12.36-30.48-.11-4.66-2.56-9.19-7.07-13.1-9.67-8.36-26.72-12.47-43.45-10.47a.5.5,0,0,1-.55-.44.5.5,0,0,1,.43-.56c17-2,34.36,2.17,44.22,10.71,4.73,4.1,7.3,8.88,7.42,13.84.28,11.43-6.23,21.4-12.52,31-7.17,11-14.59,22.35-12.14,36a.5.5,0,0,1-.4.58Z" id="elr6usmw1mvl" class="animable" style="transform-origin: 298.337px 193.388px;"></path><path d="M182.89,239.73a.5.5,0,0,1-.4-.8c9.88-13.37,25.12-34.77,41.56-60.8a65.1,65.1,0,0,1,43.35-29.75.5.5,0,0,1,.59.39.49.49,0,0,1-.39.59,64.14,64.14,0,0,0-42.71,29.31c-16.45,26.05-31.7,47.48-41.6,60.86A.49.49,0,0,1,182.89,239.73Z" id="elcfgf46x0jjd" class="animable" style="transform-origin: 225.196px 194.05px;"></path><path d="M218.49,85.79c-7.73,0-14-4.74-14-10.57s6.29-10.56,14-10.56,14,4.74,14,10.56S226.23,85.79,218.49,85.79Zm0-20.13c-7.18,0-13,4.29-13,9.56s5.84,9.57,13,9.57,13-4.29,13-9.57S225.67,65.66,218.49,65.66Z" id="elcdon0ql9qy" class="animable" style="transform-origin: 218.49px 75.225px;"></path><path d="M151.49,148.7a5.54,5.54,0,1,1,5.53-5.53A5.54,5.54,0,0,1,151.49,148.7Zm0-10.07a4.54,4.54,0,1,0,4.53,4.54A4.54,4.54,0,0,0,151.49,138.63Z" id="elzo0c2k7fszg" class="animable" style="transform-origin: 151.48px 143.16px;"></path><path d="M358.79,196.51a13.08,13.08,0,1,1,13.39-13.08A13.26,13.26,0,0,1,358.79,196.51Zm0-25.16a12.08,12.08,0,1,0,12.39,12.08A12.26,12.26,0,0,0,358.79,171.35Z" id="elfugk82el2og" class="animable" style="transform-origin: 359.1px 183.432px;"></path><path d="M304.68,125.42a5.85,5.85,0,1,1,5.85-5.85A5.86,5.86,0,0,1,304.68,125.42Zm0-10.69a4.85,4.85,0,1,0,4.85,4.84A4.85,4.85,0,0,0,304.68,114.73Z" id="el6gf9v7gs8rq" class="animable" style="transform-origin: 304.68px 119.57px;"></path></g></g></g><g id="freepik--Plant--inject-35" class="animable" style="transform-origin: 74.8px 342.3px;"><path d="M38.05,308.91s-2.7,7.43-8.44,8.44-15.87-10.12-9.46-15.86S35.35,304.86,38.05,308.91Z" style="fill: rgb(146, 227, 169); transform-origin: 28.0734px 308.529px;" id="el3idrzp61bpd" class="animable"></path><path d="M28.88,317.91c-3.47,0-8.15-3.47-10.24-7.79-1.71-3.52-1.28-6.8,1.18-9a7.31,7.31,0,0,1,6-1.9c5.08.64,10.33,6,12.62,9.43a.49.49,0,0,1,.06.44c-.12.32-2.87,7.71-8.83,8.77A5.32,5.32,0,0,1,28.88,317.91Zm-4.06-17.77a6.34,6.34,0,0,0-4.33,1.72c-2.89,2.58-1.84,6-.95,7.83,2.05,4.23,6.9,7.71,10,7.17,4.83-.85,7.46-6.65,8-7.89-2.26-3.28-7.13-8.18-11.77-8.77A7,7,0,0,0,24.82,300.14Z" style="fill: rgb(38, 50, 56); transform-origin: 28.0676px 308.53px;" id="eltt20aoa0b9m" class="animable"></path><path d="M46.83,272.45S38.39,293,41.76,303.17s24.31,17.56,30.39,4.39-7.43-31.73-12.49-35.79S48.51,269.07,46.83,272.45Z" style="fill: rgb(146, 227, 169); transform-origin: 57.3291px 291.956px;" id="el1z7kuecnlwqi" class="animable"></path><path d="M60.46,315.13l-1.07,0c-8-.44-16.09-5.72-18.1-11.77-3.4-10.19,4.73-30.22,5.07-31.07l0,0A6.5,6.5,0,0,1,51,269a10.83,10.83,0,0,1,9,2.39c5.18,4.15,18.83,23,12.63,36.39C70.4,312.55,66.11,315.13,60.46,315.13ZM47.28,272.66c-.28.69-8.28,20.64-5,30.36,1.86,5.59,9.74,10.67,17.21,11.09,3.32.19,9.33-.45,12.24-6.76,6-12.92-7.31-31.16-12.35-35.18A9.81,9.81,0,0,0,51.17,270,5.56,5.56,0,0,0,47.28,272.66Z" style="fill: rgb(38, 50, 56); transform-origin: 57.3372px 291.973px;" id="elvj8auhuol8" class="animable"></path><path d="M96.12,281.23S81.6,294.4,79.91,307.56s8.11,17.9,18.24,16.21,15.19-27.35,12.15-39.17S96.12,281.23,96.12,281.23Z" style="fill: rgb(146, 227, 169); transform-origin: 95.4479px 301.201px;" id="el56bpijyd4rw" class="animable"></path><path d="M94.24,324.6c-4.5,0-8.43-1.37-11.11-4-3.14-3-4.43-7.57-3.71-13.14,1.69-13.2,15.77-26.1,16.36-26.64l0,0c.23-.17,5.66-4.24,10.17-2.66,2.31.8,3.92,2.93,4.79,6.31,2.2,8.54.24,25.4-5.58,34.34-2.08,3.19-4.42,5-7,5.44A24.07,24.07,0,0,1,94.24,324.6Zm2.2-43c-.57.53-14.41,13.39-16,26-.67,5.24.51,9.5,3.41,12.29,3.22,3.11,8.41,4.33,14.24,3.36,2.27-.38,4.38-2.06,6.3-5,5.68-8.74,7.6-25.21,5.46-33.55-.79-3-2.18-4.93-4.16-5.62C101.78,277.75,96.77,281.37,96.44,281.61Z" style="fill: rgb(38, 50, 56); transform-origin: 95.4219px 301.198px;" id="el43579747s8j" class="animable"></path><path d="M98.82,354.15s-16.21.68-16.88,8.45,7.09,9.45,14.85,2.7S105.57,354.49,98.82,354.15Z" style="fill: rgb(146, 227, 169); transform-origin: 92.6029px 361.834px;" id="elp4zp5s7iwt" class="animable"></path><path d="M87.55,370a6.7,6.7,0,0,1-3-.69c-2.25-1.15-3.34-3.56-3.06-6.79.71-8.11,16.68-8.87,17.36-8.9h0c2.73.13,4.36.89,4.82,2.25.73,2.1-1.41,5.3-6.55,9.76C93.86,368.51,90.44,370,87.55,370Zm11.27-15.37c-.67,0-15.76.86-16.38,8-.25,2.79.65,4.86,2.52,5.81,2.85,1.45,7.37.06,11.51-3.53,6.2-5.39,6.58-7.76,6.26-8.69C102.33,355.08,100.39,354.74,98.82,354.66Z" style="fill: rgb(38, 50, 56); transform-origin: 92.6279px 361.81px;" id="eljr297i07zlp" class="animable"></path><path d="M82.42,364.9,82,364c.52-.24,12.9-5.88,18.64-6.89l.18,1C95.2,359.07,82.54,364.84,82.42,364.9Z" style="fill: rgb(38, 50, 56); transform-origin: 91.41px 361.005px;" id="elag1zs5sa7k" class="animable"></path><path d="M102.43,405s-11.9-11-17.88-6-1.71,11.7,8.55,12.44S107,410,102.43,405Z" style="fill: rgb(146, 227, 169); transform-origin: 93.0951px 404.639px;" id="elvukqm02og4" class="animable"></path><path d="M96.79,412q-1.68,0-3.72-.15c-6-.43-10.37-2.87-11.5-6.37-.77-2.4.17-4.87,2.66-6.95,6.24-5.22,18,5.58,18.54,6l0,0c1.84,2,2.44,3.72,1.81,5C103.83,411.24,101.26,412,96.79,412Zm-8.42-13.89a5.27,5.27,0,0,0-3.5,1.19c-2.16,1.8-3,3.88-2.35,5.88,1,3.05,5.15,5.28,10.62,5.67,8.2.61,10.14-.79,10.58-1.68.53-1.1-.59-2.71-1.64-3.88C101.67,405,94.11,398.14,88.37,398.14Z" style="fill: rgb(38, 50, 56); transform-origin: 93.065px 404.554px;" id="elctp5v9dh3qq" class="animable"></path><path d="M101.06,409.15c-4.67-3.29-17.68-8.19-17.81-8.24l.35-.94c.54.2,13.26,5,18,8.36Z" style="fill: rgb(38, 50, 56); transform-origin: 92.425px 404.56px;" id="elooxmlj4exjt" class="animable"></path><path d="M39.64,401.72s16.41-15.19,24.66-8.3,2.35,16.12-11.8,17.15S33.41,408.65,39.64,401.72Z" style="fill: rgb(146, 227, 169); transform-origin: 52.5294px 401.199px;" id="elrcpo0wp6dha" class="animable"></path><path d="M47.52,411.27c-6.08,0-9.68-1.07-10.71-3.18-.84-1.71,0-4,2.46-6.7l0,0C40,400.72,56.13,386,64.62,393c3.36,2.81,4.64,6.14,3.6,9.38-1.53,4.74-7.54,8.05-15.68,8.65C50.71,411.2,49,411.27,47.52,411.27ZM40,402.07c-2.16,2.41-2.93,4.28-2.3,5.58s3.36,3.25,14.77,2.42c7.61-.55,13.42-3.68,14.8-8,.91-2.82-.26-5.78-3.29-8.31C56.27,387.37,40.59,401.53,40,402.07Z" style="fill: rgb(38, 50, 56); transform-origin: 52.5332px 401.193px;" id="elznukjv2cfxh" class="animable"></path><path d="M41.43,407.33l-.58-.81c6.56-4.62,24.08-11.23,24.82-11.51L66,396C65.84,396,47.88,402.79,41.43,407.33Z" style="fill: rgb(38, 50, 56); transform-origin: 53.425px 401.17px;" id="el9amxugxp8kj" class="animable"></path><path d="M58.64,370.36s-1.69,8.1-7.76,11.14S34,378.13,39.74,368.33,55.6,366.31,58.64,370.36Z" style="fill: rgb(146, 227, 169); transform-origin: 48.3758px 372.924px;" id="elagr2p8xypij" class="animable"></path><path d="M47.49,382.75a10.6,10.6,0,0,1-7.57-3.25c-2.85-3.05-3.08-7.22-.62-11.42,1.84-3.13,4.27-4.81,7.22-5,5.1-.31,10.39,4.11,12.52,6.95a.48.48,0,0,1,.09.4c-.07.34-1.81,8.38-8,11.49A8.12,8.12,0,0,1,47.49,382.75ZM47,364.09l-.41,0c-2.6.14-4.76,1.65-6.41,4.48-2.23,3.79-2.05,7.52.48,10.23s7,3.75,10,2.23c5.25-2.62,7.13-9.28,7.45-10.57C55.94,367.71,51.26,364.09,47,364.09Z" style="fill: rgb(38, 50, 56); transform-origin: 48.3738px 372.907px;" id="elu7na7up2f5" class="animable"></path><path d="M44.46,345s-3-6.75-14.85-2.36-16.55,11.14-9.12,13.5S44.46,345,44.46,345Z" style="fill: rgb(146, 227, 169); transform-origin: 30.6891px 348.787px;" id="elinfsc1uzz9i" class="animable"></path><path d="M22.43,357a7,7,0,0,1-2.09-.3c-3.18-1-3.88-2.68-3.91-3.9-.08-3.45,5-7.59,13-10.55,12.12-4.5,15.46,2.55,15.49,2.62a.52.52,0,0,1-.14.6C44.15,345.94,30.56,357,22.43,357Zm14.41-15.28a20.58,20.58,0,0,0-7.06,1.46c-8.57,3.19-12.41,7.21-12.35,9.59,0,1.63,1.77,2.51,3.21,3,6.53,2.08,20.84-8.94,23.18-10.79C43.26,344,41.37,341.68,36.84,341.68Z" style="fill: rgb(38, 50, 56); transform-origin: 30.6956px 348.875px;" id="elpn4vm9h8vs" class="animable"></path><path d="M23.24,352.22l-.65-.76c6.81-5.79,19-7.17,19.56-7.23l.1,1C42.13,345.24,29.81,346.63,23.24,352.22Z" style="fill: rgb(38, 50, 56); transform-origin: 32.42px 348.225px;" id="elsr9uhjvjpc" class="animable"></path><path d="M78.23,264s2,4.73,6.07,3.71,5.07-7.09,11.48-5.4,11.82,9.12,11.82,5.74-8.1-12.15-17.22-12.15S78.56,259.62,78.23,264Z" style="fill: rgb(146, 227, 169); transform-origin: 92.915px 262.411px;" id="el7prnojqzblo" class="animable"></path><path d="M107.09,269.43c-.75,0-1.76-.77-3.38-2-2.1-1.61-5-3.82-8.06-4.63-3.69-1-5.4.78-7.22,2.62a8.86,8.86,0,0,1-4,2.79c-4.41,1.1-6.63-3.95-6.65-4a.41.41,0,0,1,0-.24c.43-5.68,4.69-8.56,12.65-8.56,9.15,0,17.72,8.7,17.72,12.65,0,.24,0,1-.58,1.27A.94.94,0,0,1,107.09,269.43Zm-13.41-7.9a8.57,8.57,0,0,1,2.23.31c3.26.86,6.24,3.13,8.41,4.79a10.69,10.69,0,0,0,2.75,1.8h0a2.08,2.08,0,0,0,0-.37c0-2.85-7.52-11.65-16.72-11.65-7.39,0-11.2,2.45-11.65,7.51.33.68,2.14,4.15,5.45,3.32a8,8,0,0,0,3.54-2.52C89.21,263.21,90.86,261.53,93.68,261.53Z" style="fill: rgb(38, 50, 56); transform-origin: 92.956px 262.421px;" id="elftw34u0u0nk" class="animable"></path><path d="M66.09,363.45a46,46,0,0,0-1.5-4.88c-5.84-15.57-19.89-13.07-20-13l-.19-1c.15,0,15-2.68,21.15,13.67a45.1,45.1,0,0,1,1.54,5Z" style="fill: rgb(38, 50, 56); transform-origin: 55.745px 353.928px;" id="el7d5mobuv62" class="animable"></path><path d="M105.14,329.4s3-6.75,14.85-2.36,16.54,11.14,9.12,13.5S105.14,329.4,105.14,329.4Z" style="fill: rgb(146, 227, 169); transform-origin: 118.909px 333.187px;" id="eltuy7zyidhf" class="animable"></path><path d="M127.17,341.32c-8.13,0-21.72-11-22.35-11.53a.51.51,0,0,1-.14-.6c0-.07,3.37-7.12,15.49-2.62,8,3,13.08,7.1,13,10.55,0,1.22-.73,2.89-3.91,3.9A7,7,0,0,1,127.17,341.32Zm-21.39-12.05c2.34,1.85,16.64,12.87,23.18,10.79,1.44-.46,3.17-1.34,3.21-3,.06-2.38-3.78-6.4-12.35-9.59C110,323.87,106.57,328,105.78,329.27Z" style="fill: rgb(38, 50, 56); transform-origin: 118.903px 333.195px;" id="elre62jd96vgg" class="animable"></path><path d="M125.38,336.59c-5.52-6.82-17.4-6.25-17.52-6.25l0-1c.51,0,12.5-.61,18.35,6.61Z" style="fill: rgb(38, 50, 56); transform-origin: 117.035px 332.959px;" id="el4ux4q5rw6rw" class="animable"></path><path d="M95.27,331.23l-.4-.92a19.05,19.05,0,0,1,10.36-1.4l-.19,1A18.42,18.42,0,0,0,95.27,331.23Z" style="fill: rgb(38, 50, 56); transform-origin: 100.05px 329.972px;" id="el2ijbbtu95ya" class="animable"></path><path d="M51.86,317.64C44.93,310.56,38,309.42,38,309.41s-10.23-2.65-14,.84l-.68-.74c4.22-3.86,14.49-1.2,14.93-1.08.24,0,7.23,1.2,14.39,8.51Z" style="fill: rgb(38, 50, 56); transform-origin: 37.98px 312.533px;" id="el6mq9kvm387f" class="animable"></path><g id="elu3xilensehr"><rect x="52.84" y="277.03" width="1" height="2.89" style="fill: rgb(38, 50, 56); transform-origin: 53.34px 278.475px; transform: rotate(-12.62deg);" class="animable"></rect></g><path d="M70.6,429.16l-1,0c0-.58,1.5-58.31,0-75.74s-8.48-38-8.55-38.22L53.84,283l1-.22L62,314.9c.06.15,7.09,20.89,8.59,38.4S70.61,428.58,70.6,429.16Z" style="fill: rgb(38, 50, 56); transform-origin: 62.5508px 355.97px;" id="elwjkzcy1xwi" class="animable"></path><g id="elty46aihanyh"><rect x="99.22" y="290.48" width="3.08" height="1" style="fill: rgb(38, 50, 56); transform-origin: 100.76px 290.98px; transform: rotate(-64.94deg);" class="animable"></rect></g><path d="M74.13,429.09h-1c0-.53.53-53.24,2.53-68.23s10-38.71,10.11-38.94l12.41-26.59.9.42L86.7,322.28c-.06.19-8.06,23.79-10,38.7S74.14,428.56,74.13,429.09Z" style="fill: rgb(38, 50, 56); transform-origin: 86.105px 362.21px;" id="eltbx81skq3" class="animable"></path><path d="M77.16,429.19l-1-.06c2-33.93,5.51-64.44,5.55-64.74l1,.11C82.67,364.81,79.15,395.29,77.16,429.19Z" style="fill: rgb(38, 50, 56); transform-origin: 79.435px 396.79px;" id="el2hgmziflod4" class="animable"></path><path d="M65.55,429.09l-1,0c0-.48,1-48.48-1-54.89-.69-2.23-1.61-3.57-2.68-3.88a2.25,2.25,0,0,0-1.92.44l-.12.1-.15,0c-.09,0-9.14,1.13-12.35,6.28l-.85-.53c3.28-5.26,11.71-6.56,13-6.73a3.21,3.21,0,0,1,2.71-.54c1.43.41,2.56,1.94,3.36,4.54C66.54,380.44,65.6,427.11,65.55,429.09Z" style="fill: rgb(38, 50, 56); transform-origin: 55.6476px 399.166px;" id="ell039gqqkx6" class="animable"></path><path d="M68.08,429.16l-1-.05c0-.47,2.4-47.35-.2-61.91l1-.18C70.48,381.7,68.1,428.69,68.08,429.16Z" style="fill: rgb(38, 50, 56); transform-origin: 67.9873px 398.09px;" id="elcp1suupqwpg" class="animable"></path><path d="M78.68,429.16c0-2.87-.62-70.54,5.4-86.58a21.71,21.71,0,0,1,7.85-10.64l.56.83A20.75,20.75,0,0,0,85,342.93c-6,15.87-5.34,85.52-5.33,86.22Z" style="fill: rgb(38, 50, 56); transform-origin: 85.576px 380.55px;" id="elbjajyv9svvm" class="animable"></path><path d="M72.61,429.15l-1-.13c1.42-10.42-1.45-70.87-9.56-94.18a47.41,47.41,0,0,0-8.47-15.3l.76-.65A48.26,48.26,0,0,1,63,334.52C71.15,357.94,74,418.68,72.61,429.15Z" style="fill: rgb(38, 50, 56); transform-origin: 63.2636px 374.02px;" id="elcx0mztgl3fr" class="animable"></path><path d="M74.13,429.09h-1c0-.59.35-59.2.84-88.16l1,0C74.48,369.89,74.13,428.5,74.13,429.09Z" style="fill: rgb(38, 50, 56); transform-origin: 74.05px 385.01px;" id="elq3xb1wyso" class="animable"></path><path d="M75,337.29H74c.4-23.37.78-39.69,1.12-48.53.88-22.95,2.17-24.86,2.7-25.17.53-1.21,3.18-5.9,12.76-5.28l-.06,1c-9.94-.63-11.78,4.65-11.85,4.87l-.24.75-.2-.19c-.42,1.09-1.4,5.59-2.11,24.07C75.81,297.62,75.43,313.94,75,337.29Z" style="fill: rgb(38, 50, 56); transform-origin: 82.29px 297.772px;" id="el1flvtgc0vkvj" class="animable"></path><path d="M61.61,359.4s-8.44-7.52-5.06-11.23,24.31-6.41,30.38-1.6-7.42,11.6-12.49,13.08S63.3,360.64,61.61,359.4Z" style="fill: rgb(146, 227, 169); transform-origin: 72.1106px 352.273px;" id="elbgenlrdmihq" class="animable"></path><path d="M67.74,361.05c-2.88,0-5.37-.47-6.42-1.24l0,0c-.24-.22-5.82-5.23-6-9.26a3.52,3.52,0,0,1,.92-2.68c3.65-4,24.74-6.67,31.06-1.66A3.74,3.74,0,0,1,88.91,350c-.88,4.51-10.48,9-14.33,10.16A25.15,25.15,0,0,1,67.74,361.05Zm-5.81-2c1.52,1.08,7.35,1.63,12.37.16,4.37-1.28,12.89-5.63,13.63-9.4A2.81,2.81,0,0,0,86.62,347c-5.76-4.56-26.48-2-29.7,1.55a2.52,2.52,0,0,0-.66,2C56.44,354,61.58,358.7,61.93,359Z" style="fill: rgb(38, 50, 56); transform-origin: 72.1395px 352.263px;" id="elz6rescbsclr" class="animable"></path><path d="M69.72,355.49h-1a15.1,15.1,0,0,1,.19-2.33l1,.16A14.2,14.2,0,0,0,69.72,355.49Z" style="fill: rgb(38, 50, 56); transform-origin: 69.315px 354.325px;" id="elp5cizqr1ij8" class="animable"></path><path d="M70.62,350.18l-1-.28a39.55,39.55,0,0,1,2.2-5.67l.9.45A37,37,0,0,0,70.62,350.18Z" style="fill: rgb(38, 50, 56); transform-origin: 71.17px 347.205px;" id="ellq8qzoo5hv" class="animable"></path><path d="M61.61,408.62s-8.44-7.53-5.06-11.23,24.31-6.42,30.38-1.61-7.42,11.6-12.49,13.08S63.3,409.85,61.61,408.62Z" style="fill: rgb(146, 227, 169); transform-origin: 72.1106px 401.487px;" id="el7z5qk8nqfye" class="animable"></path><path d="M67.74,410.27c-2.88,0-5.37-.48-6.42-1.25l0,0c-.24-.21-5.82-5.23-6-9.25a3.53,3.53,0,0,1,.92-2.69c3.65-4,24.74-6.67,31.06-1.66a3.75,3.75,0,0,1,1.67,3.79c-.88,4.51-10.48,9-14.33,10.16A24.78,24.78,0,0,1,67.74,410.27Zm-5.81-2c1.52,1.08,7.35,1.62,12.37.15,4.37-1.27,12.89-5.63,13.63-9.39a2.82,2.82,0,0,0-1.31-2.82c-5.76-4.56-26.48-2-29.7,1.55a2.53,2.53,0,0,0-.66,2C56.44,403.19,61.58,407.91,61.93,408.23Z" style="fill: rgb(38, 50, 56); transform-origin: 72.1657px 401.479px;" id="el101lm6menge" class="animable"></path><path d="M69.72,404.7h-1c0-4.92,3-11,3.14-11.26l.9.45C72.73,394,69.72,400,69.72,404.7Z" style="fill: rgb(38, 50, 56); transform-origin: 70.74px 399.07px;" id="elgbhztocurcc" class="animable"></path><path d="M67.9,387.8s-5.73-5.11-3.44-7.62,16.5-4.36,20.63-1.09-5,7.87-8.48,8.88S69,388.64,67.9,387.8Z" style="fill: rgb(146, 227, 169); transform-origin: 75.0307px 382.964px;" id="elnfcx4mh8zqa" class="animable"></path><path d="M72,389.09a8.74,8.74,0,0,1-4.44-.88l0,0c-.16-.15-4-3.6-4.14-6.4a2.58,2.58,0,0,1,.67-1.94c2.5-2.75,17-4.58,21.31-1.14a2.72,2.72,0,0,1,1.19,2.73c-.65,3.31-7.54,6.35-9.84,7A17.07,17.07,0,0,1,72,389.09Zm-3.83-1.68c1,.7,5,1,8.26.08,2.85-.83,8.66-3.8,9.13-6.25a1.74,1.74,0,0,0-.82-1.76c-3.87-3.06-17.79-1.34-20,1a1.55,1.55,0,0,0-.41,1.21C64.54,384,67.93,387.15,68.21,387.41Z" style="fill: rgb(38, 50, 56); transform-origin: 75.0204px 382.981px;" id="el8zpfyg2dd95" class="animable"></path><path d="M73.56,385.14h-1c0-3.37,2.06-7.54,2.15-7.71l.9.45S73.56,382,73.56,385.14Z" style="fill: rgb(38, 50, 56); transform-origin: 74.085px 381.285px;" id="elszbeppouxmc" class="animable"></path></g><g id="freepik--Table--inject-35" class="animable" style="transform-origin: 252.67px 429.16px;"><path d="M477.92,429.66H27.42a.51.51,0,0,1-.5-.5.5.5,0,0,1,.5-.5h450.5a.5.5,0,0,1,.5.5A.51.51,0,0,1,477.92,429.66Z" style="fill: rgb(38, 50, 56); transform-origin: 252.67px 429.16px;" id="elu9ef1d7y43r" class="animable"></path></g><g id="freepik--Character--inject-35" class="animable" style="transform-origin: 269.637px 287.031px;"><path d="M375.46,318.07a3.93,3.93,0,0,1,.06-2.3c.76-2.24,3.34-3.23,4.91-5,2.85-3.18,1.83-8.51-1.15-11.55s-7.34-4.28-11.54-5-8.54-1.18-12.37-3.05a5.13,5.13,0,0,1-2.23-1.77c-1.39-2.29.7-5,2.47-7,4.12-4.65,7.36-10.78,6.2-16.88a6.1,6.1,0,0,0-2.59-4.3c-3.07-1.75-6.61,1.15-10,2a9.19,9.19,0,0,1-10-4.78c-1.27-2.56.39-3.62,1.41-6a11.91,11.91,0,0,0,.87-7.39c-.81-3.59-2.68-7-2.7-10.66,0-5.79,4.42-10.52,6.46-15.94,4.19-11.11-2.2-23.32-9.51-32.68a143.87,143.87,0,0,0-41.54-36c-6.31-3.63-13.21-6.85-20.48-6.73s-14.94,4.46-16.72,11.51c-12.64-.39-25,5.3-34.33,13.82s-16,19.65-21,31.25c-2.59,6-4.83,12.33-5,18.87s1.92,13.42,6.82,17.76a9.81,9.81,0,0,0-.8,14.08,6.55,6.55,0,0,1,1.61,1.88c.58,1.36-.19,3-1.26,4-5.8,5.58-16.89-.3-22.93,5-3.32,2.93-3.51,8.21-1.88,12.33s4.68,7.49,7.22,11.12c.79,1.12,1.56,2.43,1.28,3.77s-1.64,2.27-2.92,2.87c-3.9,1.79-8.26,2.19-12.48,3s-8.58,2.14-11.48,5.3-3.68,8.59-.65,11.63c1.48,1.49,3.73,2.32,4.57,4.25,1.16,2.65-1.09,5.58-3.56,7.09s-5.43,2.49-7.09,4.86c-2.71,3.87-.27,9.61,3.77,12.06s9,2.52,13.76,2.52H368.68c4.75,0,9.77-.07,13.82-2.54s6.47-8.27,3.71-12.13c-1.64-2.29-4.51-3.25-6.92-4.69A8.25,8.25,0,0,1,375.46,318.07Z" style="fill: rgb(38, 50, 56); transform-origin: 269.688px 242.523px;" id="elf7pwb3qlc9c" class="animable"></path><path d="M368.68,342.44H170.6c-4.34,0-9.74,0-14-2.59a11.12,11.12,0,0,1-5-7,7.3,7.3,0,0,1,1-5.81c1.27-1.82,3.24-2.85,5.15-3.84.7-.37,1.42-.75,2.09-1.16,2.43-1.48,4.36-4.17,3.36-6.46a6.91,6.91,0,0,0-2.58-2.6,14.31,14.31,0,0,1-1.89-1.5c-3.32-3.33-2.35-9.06.64-12.32,3.19-3.47,8-4.74,11.76-5.45.94-.18,1.89-.34,2.84-.49a37.37,37.37,0,0,0,9.52-2.46c1.56-.72,2.43-1.54,2.64-2.52s-.43-2.29-1.2-3.38c-.65-.93-1.35-1.85-2-2.77a37.25,37.25,0,0,1-5.24-8.44c-1.62-4.1-1.62-9.68,2-12.89,3.14-2.76,7.52-2.65,11.76-2.55s8.37.21,11.16-2.46c.92-.88,1.63-2.28,1.14-3.41a4.46,4.46,0,0,0-1.13-1.37l-.37-.36a9.79,9.79,0,0,1-2.73-7.59,9.93,9.93,0,0,1,3.13-6.86c-4.33-4.09-6.78-10.68-6.57-17.75s2.67-13.52,5.06-19.05c5.85-13.56,12.75-23.84,21.1-31.43,10-9.14,22.5-14.19,34.28-14,2.11-7.41,10.13-11.39,17.09-11.5,7.61-.11,14.77,3.37,20.74,6.79a145,145,0,0,1,41.68,36.15c9.75,12.46,13.06,23.93,9.59,33.16a41.86,41.86,0,0,1-2.81,5.65c-1.87,3.35-3.64,6.5-3.62,10.1a20.73,20.73,0,0,0,1.5,6.61c.43,1.28.88,2.6,1.19,3.95a12.42,12.42,0,0,1-.9,7.7,16.29,16.29,0,0,1-.93,1.74c-.78,1.32-1.29,2.19-.49,3.81a8.74,8.74,0,0,0,9.46,4.53,21.14,21.14,0,0,0,3.11-1.17c2.43-1,5-2.14,7.3-.8a6.59,6.59,0,0,1,2.83,4.63c1.39,7.28-3.36,14-6.31,17.31-1.75,2-3.61,4.5-2.42,6.45a4.75,4.75,0,0,0,2,1.58,35.57,35.57,0,0,0,9.84,2.6c.8.13,1.61.26,2.4.41,3.8.68,8.58,1.89,11.8,5.18,3.07,3.12,4.27,8.78,1.18,12.23a15.43,15.43,0,0,1-2.08,1.8,7,7,0,0,0-2.74,3,3.47,3.47,0,0,0-.05,2h0a7.91,7.91,0,0,0,3.6,4.2c.63.38,1.31.73,2,1.07a13.42,13.42,0,0,1,5.11,3.76,7.27,7.27,0,0,1,1.09,5.83,11.1,11.1,0,0,1-4.95,7C378.47,342.44,373,342.44,368.68,342.44ZM189,259.2c-3.28,0-6.3.34-8.57,2.34-3.27,2.89-3.24,8-1.75,11.77a36.46,36.46,0,0,0,5.11,8.21c.7.93,1.4,1.86,2.06,2.8.85,1.21,1.68,2.66,1.36,4.16-.29,1.31-1.33,2.36-3.2,3.22a37.88,37.88,0,0,1-9.78,2.53l-2.82.49c-3.64.69-8.21,1.89-11.2,5.15-2.63,2.85-3.55,8.05-.67,10.93a13.7,13.7,0,0,0,1.76,1.4,7.68,7.68,0,0,1,2.92,3c1.23,2.81-1,6-3.76,7.72-.69.42-1.43.81-2.15,1.18-1.88,1-3.66,1.92-4.79,3.53a6.4,6.4,0,0,0-.89,5A10.07,10.07,0,0,0,157.1,339c4,2.45,9.28,2.45,13.5,2.45H368.68c4.24,0,9.51,0,13.56-2.47a10,10,0,0,0,4.49-6.36,6.33,6.33,0,0,0-.93-5.05c-1.13-1.58-2.89-2.49-4.75-3.45-.67-.35-1.36-.71-2-1.1a8.61,8.61,0,0,1-4-4.81,4.31,4.31,0,0,1,.07-2.59,7.75,7.75,0,0,1,3.08-3.5,13.54,13.54,0,0,0,1.93-1.67c2.72-3,1.61-8.06-1.14-10.86-3-3.09-7.61-4.24-11.26-4.9l-2.39-.4a36.77,36.77,0,0,1-10.12-2.69,5.7,5.7,0,0,1-2.43-2c-1.73-2.83,1.25-6.2,2.52-7.63,2.83-3.21,7.39-9.6,6.08-16.46a5.65,5.65,0,0,0-2.35-4c-1.91-1.09-4.09-.15-6.41.85a22.15,22.15,0,0,1-3.26,1.22,9.65,9.65,0,0,1-10.6-5.05c-1-2.11-.28-3.4.53-4.77a13.07,13.07,0,0,0,.87-1.63,11.41,11.41,0,0,0,.84-7.08,37,37,0,0,0-1.16-3.85,22.38,22.38,0,0,1-1.55-6.92c0-3.87,1.9-7.29,3.75-10.59a41.79,41.79,0,0,0,2.74-5.53c4.23-11.22-2.8-23.7-9.43-32.19a144.34,144.34,0,0,0-41.4-35.89c-5.84-3.36-12.79-6.78-20.22-6.66-6.7.1-14.43,4-16.25,11.14a.5.5,0,0,1-.5.37c-11.65-.35-24,4.62-34,13.69-8.24,7.5-15.06,17.66-20.86,31.08-2.35,5.44-4.78,11.92-5,18.69-.21,7,2.28,13.5,6.66,17.36a.48.48,0,0,1,.16.39.47.47,0,0,1-.19.38,9.32,9.32,0,0,0-.76,13.33c.11.12.23.23.35.34a5.36,5.36,0,0,1,1.37,1.71c.72,1.68-.29,3.48-1.37,4.52-3.08,3-7.55,2.85-11.88,2.74C190.62,259.22,189.78,259.2,189,259.2Z" style="fill: rgb(38, 50, 56); transform-origin: 269.631px 242.434px;" id="elb6tllvndp6l" class="animable"></path><path d="M174.61,307.35a52.87,52.87,0,0,0-17.93,15.83c-5.93,8.24-20.36,34.53-20.36,34.53S109,369.82,100,388.9s-.51,31.18,11.34,38.65,31.19,1.55,37.63-3.09c4.59-3.3,15.72-22.68,17-26.8s14.43-21.65,18.56-27.84,15.72-13.91,15.72-13.91,4.64-17.79-5.93-32.73S174.61,307.35,174.61,307.35Z" style="fill: rgb(255, 255, 255); transform-origin: 148.751px 369.226px;" id="elkihymgvar4h" class="animable"></path><path d="M125.46,431.62c-5.15,0-10.24-1-14.4-3.64-15.18-9.57-19.16-23.16-11.53-39.3,8.64-18.27,34.19-30.33,36.43-31.36,1.17-2.12,14.67-26.58,20.32-34.44a53.94,53.94,0,0,1,18.11-16,.46.46,0,0,1,.26,0c.39,0,9.49,1.06,20.07,16s6.05,33,6,33.14a.47.47,0,0,1-.21.29c-.11.08-11.56,7.75-15.58,13.78-1.2,1.81-3.14,4.53-5.38,7.69-5.16,7.24-12.22,17.17-13.11,20-1.23,3.94-12.37,23.58-17.2,27.06C144.69,428.15,135,431.62,125.46,431.62Zm49.23-123.75a53.22,53.22,0,0,0-17.6,15.6c-5.84,8.13-20.19,34.22-20.33,34.48a.51.51,0,0,1-.24.22c-.27.12-27.25,12.26-36.08,30.94-7.5,15.84-3.74,28.63,11.15,38,11.31,7.13,30.42,1.71,37.07-3.07,4.32-3.11,15.47-22.21,16.82-26.55.94-3,7.77-12.59,13.25-20.3,2.24-3.15,4.17-5.87,5.37-7.66,3.91-5.87,14.21-12.95,15.7-13.95.44-1.9,3.84-18.35-5.9-32.13S175.84,308.05,174.69,307.87Zm-38.37,49.84h0Z" style="fill: rgb(38, 50, 56); transform-origin: 148.74px 369.241px;" id="elzmikbew54ba" class="animable"></path><path d="M246.43,312.17a.48.48,0,0,1-.42-.25c-6.59-10.86-8-27.11-8-27.27a.5.5,0,0,1,.46-.54.49.49,0,0,1,.54.45c0,.16,1.39,16.19,7.85,26.85a.51.51,0,0,1-.43.76Z" style="fill: rgb(38, 50, 56); transform-origin: 242.467px 298.139px;" id="el58rslabdhze" class="animable"></path><path d="M294,311.51a.39.39,0,0,1-.23-.07.48.48,0,0,1-.2-.67c5.82-10.69,8.17-26.74,8.19-26.9a.51.51,0,0,1,.57-.42.5.5,0,0,1,.42.56c0,.17-2.39,16.39-8.31,27.24A.51.51,0,0,1,294,311.51Z" style="fill: rgb(38, 50, 56); transform-origin: 298.13px 297.478px;" id="el8oxclcf9j1f" class="animable"></path><path d="M364.67,307.35a52.89,52.89,0,0,1,17.92,15.83c5.93,8.24,20.36,34.53,20.36,34.53s27.32,12.11,36.34,31.19.52,31.18-11.34,38.65-31.18,1.55-37.63-3.09c-4.58-3.3-15.72-22.68-17-26.8S358.88,376,354.76,369.82,339,355.91,339,355.91s-4.64-17.79,5.92-32.73S364.67,307.35,364.67,307.35Z" style="fill: rgb(255, 255, 255); transform-origin: 390.524px 369.226px;" id="ely0w5udlk9uk" class="animable"></path><path d="M413.81,431.62c-9.5,0-19.22-3.47-23.78-6.75-4.83-3.48-16-23.12-17.19-27.06-.89-2.85-7.95-12.77-13.11-20-2.24-3.16-4.18-5.88-5.39-7.69-4-6-15.47-13.7-15.58-13.78a.51.51,0,0,1-.21-.29c0-.18-4.57-18.18,6-33.14s19.69-16,20.07-16a.46.46,0,0,1,.26,0,54,54,0,0,1,18.12,16c5.65,7.86,19.14,32.32,20.31,34.44,2.24,1,27.79,13.09,36.43,31.36,7.64,16.14,3.65,29.73-11.52,39.3A27,27,0,0,1,413.81,431.62Zm-74.33-76c1.48,1,11.78,8.08,15.69,13.95,1.2,1.79,3.13,4.51,5.38,7.66,5.48,7.71,12.3,17.3,13.24,20.3,1.36,4.34,12.51,23.44,16.82,26.55,6.65,4.78,25.76,10.2,37.07,3.07,14.9-9.39,18.65-22.18,11.16-38C430,370.43,403,358.29,402.75,358.17a.56.56,0,0,1-.24-.22c-.14-.26-14.48-26.35-20.33-34.48a53,53,0,0,0-17.6-15.6c-1.15.19-9.61,2-19.21,15.6C335.63,337.25,339,353.7,339.48,355.6Z" style="fill: rgb(38, 50, 56); transform-origin: 390.544px 369.263px;" id="ela4a3dz4z4cv" class="animable"></path><path d="M349.63,355.94c2.42-18.19,16.33-48.59,16.33-48.59s-1.75-2.3-20.63-12a259.89,259.89,0,0,0-39.06-15.66l-36-1.61-36,1.61a260.34,260.34,0,0,0-39.06,15.66c-18.87,9.67-20.62,12-20.62,12s13.89,30.4,16.3,48.59-4.44,32.24-4.66,46.29,3.08,24.4,5.05,26.94H347.71c2-2.54,5.26-12.9,5-26.94S347.22,374.13,349.63,355.94Z" style="fill: rgb(146, 227, 169); transform-origin: 270.275px 353.625px;" id="elee8oov8recn" class="animable"></path><path d="M347.71,429.67H191.3a.47.47,0,0,1-.39-.2c-2.21-2.82-5.37-13.44-5.16-27.25.09-5.61,1.22-11.17,2.41-17.05,1.82-9,3.7-18.26,2.25-29.16-2.37-17.91-16.12-48.15-16.26-48.45a.5.5,0,0,1,.06-.51c.07-.1,2-2.5,20.8-12.12a262.33,262.33,0,0,1,39.14-15.69l.12,0,36-1.61,36,1.61.12,0a262.22,262.22,0,0,1,39.15,15.69c18.76,9.62,20.72,12,20.8,12.12a.52.52,0,0,1,.06.51c-.14.31-13.91,30.54-16.29,48.45h0c-1.49,11.23,0,20.75,1.37,30a119,119,0,0,1,1.75,16.25c.22,13.81-2.94,24.42-5.15,27.25A.47.47,0,0,1,347.71,429.67Zm-156.16-1h155.9c1.86-2.68,5-12.74,4.8-26.44a117.68,117.68,0,0,0-1.74-16.11c-1.41-9.28-2.88-18.87-1.37-30.24,2.26-17.07,14.74-45.12,16.22-48.42-.82-.72-4.64-3.63-20.26-11.64a260.75,260.75,0,0,0-38.91-15.6l-35.93-1.61-35.88,1.61a261.12,261.12,0,0,0-38.92,15.6c-15.58,8-19.42,10.9-20.26,11.64,1.49,3.31,13.94,31.36,16.21,48.42,1.46,11.06-.43,20.43-2.27,29.49-1.18,5.83-2.3,11.34-2.39,16.86C186.54,415.93,189.7,426,191.55,428.67Zm158.08-72.73h0Z" style="fill: rgb(38, 50, 56); transform-origin: 270.274px 353.65px;" id="el7uyhtpsnbul" class="animable"></path><path d="M270.28,278.11l-36,1.61-1.57.49a92.21,92.21,0,0,0-5.54,32c0,36.74,20.19,66.53,45.09,66.53s45.08-29.79,45.08-66.53a92.51,92.51,0,0,0-5-30.49c-3.77-1.28-6.07-2-6.07-2Z" style="fill: rgb(255, 255, 255); transform-origin: 272.255px 328.425px;" id="eluku2tuw6ix" class="animable"></path><path d="M272.27,379.2c-25.14,0-45.59-30.07-45.59-67A93,93,0,0,1,232.26,280a.49.49,0,0,1,.31-.3l1.58-.49.12,0,36-1.61h.05l36,1.61.12,0s2.36.7,6.09,2a.53.53,0,0,1,.31.31,92.49,92.49,0,0,1,5,30.66C317.85,349.13,297.4,379.2,272.27,379.2Zm-39.16-98.59a92.21,92.21,0,0,0-5.43,31.56c0,36.41,20,66,44.59,66s44.58-29.62,44.58-66a91.56,91.56,0,0,0-4.91-30.1c-3.25-1.1-5.38-1.74-5.75-1.85l-35.91-1.61-35.9,1.61Z" style="fill: rgb(38, 50, 56); transform-origin: 272.261px 328.4px;" id="elujym36r7cmp" class="animable"></path><path d="M248.44,309.34a.51.51,0,0,1-.43-.24c-5.06-8.43-7.47-22.66-7.5-22.8a.51.51,0,0,1,.41-.58.5.5,0,0,1,.58.41c0,.15,2.41,14.19,7.36,22.45a.49.49,0,0,1-.17.69A.47.47,0,0,1,248.44,309.34Z" style="fill: rgb(38, 50, 56); transform-origin: 244.721px 297.526px;" id="el7nbeoiirbwd" class="animable"></path><path d="M291.66,309.34a.59.59,0,0,1-.23,0,.51.51,0,0,1-.22-.67,68,68,0,0,0,6.7-20.43.5.5,0,0,1,1,.11,68.94,68.94,0,0,1-6.81,20.76A.48.48,0,0,1,291.66,309.34Z" style="fill: rgb(38, 50, 56); transform-origin: 295.037px 298.572px;" id="el2jfq94uc4wj" class="animable"></path><path d="M269.9,179.33s-3.14,14.34-7.17,18.38c-6.26,6.25-17.47,10.22-17.47,10.22a25.65,25.65,0,0,1-5.4,7.18,27.88,27.88,0,0,1-9,5.83s-3.42,42.83-1.42,49,7.86,14.26,16,19.69,14.82,11.54,23.88,12.1,11.42-.86,17.32-4.32c1.5-.88,17.92-14.61,21.52-19.4s5.1-12.83,5.24-17-5.12-44.34-5.12-44.34A32.94,32.94,0,0,1,293,205.13c-6.81-9.06-7.49-10.56-7.49-10.56S271.24,195.91,269.9,179.33Z" style="fill: rgb(255, 255, 255); transform-origin: 271.108px 240.589px;" id="elkxfjnfesvhr" class="animable"></path><path d="M272.76,302.37c-1.05,0-2.2,0-3.48-.12-7.45-.45-13.32-4.6-19.54-9-1.49-1.05-3-2.13-4.59-3.18-7.57-5-13.94-12.87-16.22-19.95-2-6.22,1.26-47.47,1.4-49.22a.48.48,0,0,1,.33-.43,27.7,27.7,0,0,0,8.85-5.71,25.85,25.85,0,0,0,5.29-7,.5.5,0,0,1,.29-.28c.11,0,11.18-4,17.28-10.11,3.89-3.88,7-18,7-18.13a.5.5,0,0,1,1,.07c.42,5.19,2.16,9.11,5.19,11.64a14.73,14.73,0,0,0,9.83,3.15.48.48,0,0,1,.5.28c0,.06.84,1.69,7.44,10.47a32.81,32.81,0,0,0,15.05,11.39.51.51,0,0,1,.36.41c.21,1.64,5.26,40.27,5.12,44.43s-1.68,12.42-5.34,17.28S288.33,297,286.89,297.87C281.73,300.89,279.2,302.37,272.76,302.37ZM231.3,221.29c-.3,3.91-3.27,42.76-1.42,48.53s7.41,13.82,15.82,19.42c1.59,1.05,3.13,2.14,4.61,3.19,6.1,4.32,11.86,8.39,19,8.83,8.87.54,11.07-.75,17-4.21,1.62-.95,17.95-14.64,21.45-19.31s5-12.56,5.14-16.71c.13-3.89-4.58-40.18-5.07-43.95a33.68,33.68,0,0,1-15.26-11.65c-5.31-7.07-6.92-9.56-7.38-10.34a15.49,15.49,0,0,1-10.24-3.39,15.94,15.94,0,0,1-5.19-9.63c-1.12,4.37-3.61,12.93-6.67,16-5.88,5.88-15.87,9.69-17.46,10.27a27.11,27.11,0,0,1-5.41,7.14A28.26,28.26,0,0,1,231.3,221.29Z" style="fill: rgb(38, 50, 56); transform-origin: 271.073px 240.572px;" id="el9sta2imwq74" class="animable"></path><path d="M273.58,262.9a1.75,1.75,0,1,0-1.75,1.75A1.74,1.74,0,0,0,273.58,262.9Z" style="fill: rgb(38, 50, 56); transform-origin: 271.83px 262.9px;" id="el8ds7b4frh2x" class="animable"></path><path d="M271.83,265.15a2.25,2.25,0,1,1,2.25-2.25A2.25,2.25,0,0,1,271.83,265.15Zm0-3.49a1.25,1.25,0,1,0,1.25,1.24A1.25,1.25,0,0,0,271.83,261.66Z" style="fill: rgb(38, 50, 56); transform-origin: 271.83px 262.9px;" id="elj3mwxlbubv" class="animable"></path><path d="M271.31,248.65a5.52,5.52,0,0,1-.81-.06,4.91,4.91,0,0,1-3.91-3.44.5.5,0,0,1,1-.32,3.85,3.85,0,0,0,3.12,2.77,4,4,0,0,0,3.81-1.42,12,12,0,0,0,2-4.94,33.83,33.83,0,0,1-2.43-7.43c-.85-4.27.78-10,.85-10.27a.49.49,0,0,1,.61-.34.5.5,0,0,1,.35.62c0,.05-1.63,5.76-.82,9.79a32.88,32.88,0,0,0,2.4,7.33.52.52,0,0,1,.05.28,12.8,12.8,0,0,1-2.24,5.56A5,5,0,0,1,271.31,248.65Z" style="fill: rgb(38, 50, 56); transform-origin: 272.049px 235.915px;" id="el2df9018kww8" class="animable"></path><path d="M260.61,231.47s-1.38-5.35-6.35-5.72c-4.28-.31-8.7,2.07-9.29,5s1.17,1.76,3.67.37,5.91-1.81,7.81,0A3.54,3.54,0,0,0,260.61,231.47Z" style="fill: rgb(38, 50, 56); transform-origin: 252.733px 229.146px;" id="elkgmzkji53dh" class="animable"></path><path d="M297,232.7s-1.38-5.35-6.35-5.71c-4.28-.32-8.7,2.06-9.29,5s1.17,1.76,3.67.37,5.91-1.82,7.81,0A3.52,3.52,0,0,0,297,232.7Z" style="fill: rgb(38, 50, 56); transform-origin: 289.123px 230.387px;" id="eltb4rs3q2ned" class="animable"></path><path d="M240.66,222.55a15.49,15.49,0,0,1,8.72-9.15c6.79-2.68,11.38-1.5,12.69.26s-.43,2.56-1.63,2.69-4.08-1.16-9.3.72a17.32,17.32,0,0,0-8.26,5.73C241.28,224.46,240.11,223.39,240.66,222.55Z" style="fill: rgb(38, 50, 56); transform-origin: 251.53px 217.748px;" id="elryzzgr3vhmb" class="animable"></path><path d="M301.4,224.61a15.52,15.52,0,0,0-8.08-9.71c-6.59-3.15-11.26-2.27-12.69-.61s.26,2.59,1.45,2.8,4.15-.89,9.23,1.34a17.39,17.39,0,0,1,7.85,6.28C300.65,226.47,301.88,225.49,301.4,224.61Z" style="fill: rgb(38, 50, 56); transform-origin: 290.794px 219.239px;" id="elcxss4p6ah5" class="animable"></path><path d="M229.46,236.35s-4.77-5.51-8.83-2.68-3.14,10.79-1.52,15.6,9.72,11.43,9.72,11.43Z" style="fill: rgb(255, 255, 255); transform-origin: 223.597px 246.781px;" id="elaetv28jfjb9" class="animable"></path><path d="M228.83,261.2a.52.52,0,0,1-.32-.11c-.33-.28-8.23-6.77-9.87-11.66-1.42-4.19-2.88-13,1.71-16.17,4.37-3,9.28,2.52,9.49,2.76a.54.54,0,0,1,.12.34l-.63,24.35a.51.51,0,0,1-.29.44A.54.54,0,0,1,228.83,261.2Zm-5.67-27.83a3.8,3.8,0,0,0-2.24.71c-3.8,2.65-2.88,10.44-1.34,15,1.27,3.75,6.72,8.74,8.78,10.53l.59-23.1C228.36,235.91,225.81,233.37,223.16,233.37Z" style="fill: rgb(38, 50, 56); transform-origin: 223.6px 246.785px;" id="elorvkm0u4wtm" class="animable"></path><path d="M310.35,234.74s5.62-7.94,11.4-3-8.46,27.45-8.46,27.45Z" style="fill: rgb(255, 255, 255); transform-origin: 316.74px 244.655px;" id="elsmdeyp0i4m" class="animable"></path><path d="M313.29,259.71h-.11a.51.51,0,0,1-.39-.43l-2.93-24.47a.48.48,0,0,1,.09-.35c.12-.18,3.07-4.29,7-4.77a6.4,6.4,0,0,1,5.11,1.7c6,5.17-7.78,27.16-8.37,28.1A.5.5,0,0,1,313.29,259.71Zm-2.41-24.83,2.73,22.85c4.19-6.91,12-22,7.81-25.59a5.46,5.46,0,0,0-4.32-1.47C314,231.05,311.43,234.15,310.88,234.88Z" style="fill: rgb(38, 50, 56); transform-origin: 316.713px 244.68px;" id="ely0ulpf9wioi" class="animable"></path><path d="M246.36,281.81a.45.45,0,0,1-.25-.07c-9.11-5.15-8.75-12.91-8.73-13.23a.5.5,0,0,1,.52-.47.49.49,0,0,1,.47.52c0,.31-.31,7.48,8.23,12.31a.5.5,0,0,1,.19.68A.49.49,0,0,1,246.36,281.81Z" style="fill: rgb(38, 50, 56); transform-origin: 242.114px 274.925px;" id="elj6ic9y8fod" class="animable"></path><path d="M297.1,281.35a.51.51,0,0,1-.4-.2.5.5,0,0,1,.1-.7c5.86-4.37,7.42-14.37,7.44-14.47a.5.5,0,0,1,1,.15c-.07.42-1.64,10.5-7.83,15.12A.49.49,0,0,1,297.1,281.35Z" style="fill: rgb(38, 50, 56); transform-origin: 300.923px 273.451px;" id="elod3dft0guo" class="animable"></path><path d="M251,233.22a.5.5,0,0,1-.46-.3.51.51,0,0,1,.26-.66,7.89,7.89,0,0,1,6.38-.18.5.5,0,0,1,.22.67.49.49,0,0,1-.67.22,7,7,0,0,0-5.53.21A.48.48,0,0,1,251,233.22Z" style="fill: rgb(38, 50, 56); transform-origin: 253.977px 232.357px;" id="el3i9o0o4041u" class="animable"></path><path d="M283.43,234.52a.5.5,0,0,1-.3-.9A8.28,8.28,0,0,1,291,233a.5.5,0,0,1-.38.93,7.26,7.26,0,0,0-6.86.48A.47.47,0,0,1,283.43,234.52Z" style="fill: rgb(38, 50, 56); transform-origin: 287.12px 233.403px;" id="el3bx20ipjn6d" class="animable"></path><path d="M163.06,277s3.63,142,3.63,143.81,2.79,5.07,8.6,3.48c4.29-1.18,4.61-4.95,4-8.49s-2.32-12.08-2.32-12.08-5.2-55.66-5.2-64.79S183.28,321.22,179,301,169,266.4,166,268.47,163.06,277,163.06,277Z" style="fill: rgb(214, 214, 214); transform-origin: 171.507px 346.493px;" id="elocjx5u2846" class="animable"></path><path d="M172.37,425.22a7.1,7.1,0,0,1-4.38-1.35,4.21,4.21,0,0,1-1.8-3.05c0-1.74-3.59-142.37-3.63-143.79v0c0-.27,0-6.77,3.19-8.95a1.55,1.55,0,0,1,1.52-.16c3.83,1.51,8.87,17.68,12.17,33,2.82,13.14-1,21.43-4.09,28.08-1.68,3.64-3.13,6.78-3.13,9.93,0,9,5.15,64.17,5.2,64.74h0s1.65,8.51,2.31,12c.92,5-.52,8-4.31,9.06A11.67,11.67,0,0,1,172.37,425.22ZM163.56,277c.15,5.91,3.63,142.06,3.63,143.81a3.24,3.24,0,0,0,1.41,2.26c.92.69,3,1.72,6.56.73,3.24-.89,4.41-3.47,3.58-7.91-.66-3.53-2.31-12.07-2.31-12.07-.05-.61-5.21-55.84-5.21-64.89,0-3.38,1.49-6.61,3.22-10.35,3-6.52,6.77-14.64,4-27.45-4.27-19.9-9.05-31.32-11.56-32.31a.55.55,0,0,0-.58.05C163.63,270.74,163.56,276.79,163.56,277Z" style="fill: rgb(38, 50, 56); transform-origin: 171.493px 346.507px;" id="elaef7pkqid3r" class="animable"></path><path d="M143.28,424s11.08-1,16.24-3.87,11.59-8.76,11.59-8.76a24.78,24.78,0,0,0,4.64.51,8.18,8.18,0,0,0,7.48-7.73c.26-5.41.51-7.22.51-7.22a45.78,45.78,0,0,0,2.84-8.24c.51-3.09-1.29-6.45-1.29-6.45s2.58-7.21,2.58-11.08a16.52,16.52,0,0,0-1-6.18,48.68,48.68,0,0,0-2.32-8.51c-1.55-3.86-4.39-11.59-7-10.31s-18.3,4.39-20.36,5.16-5.41,3.09-5.41,10.56-5.67,25.78-5.67,25.78-1.55,1.29-3.87-4.38a15.39,15.39,0,0,0-18.81-8.77" style="fill: rgb(255, 255, 255); transform-origin: 155.654px 385.009px;" id="eluq6p6x959o" class="animable"></path><path d="M143.28,424.45a.51.51,0,0,1-.5-.46.5.5,0,0,1,.45-.54c.11,0,11-1.06,16.05-3.81s11.43-8.63,11.5-8.69a.48.48,0,0,1,.44-.12,25,25,0,0,0,4.53.5,7.73,7.73,0,0,0,7-7.25c.25-5.38.51-7.19.52-7.27a.33.33,0,0,1,0-.13,45.05,45.05,0,0,0,2.79-8.12c.49-2.89-1.21-6.1-1.23-6.13a.47.47,0,0,1,0-.4c0-.07,2.55-7.18,2.55-10.92a16.24,16.24,0,0,0-1-6,.56.56,0,0,1,0-.12,47.67,47.67,0,0,0-2.29-8.4l-.33-.84c-1.26-3.19-3.37-8.52-5.24-9.23a.82.82,0,0,0-.7,0c-1.61.8-7.78,2.2-13.23,3.43-3.28.75-6.39,1.45-7.18,1.75-2.32.87-5.08,3.32-5.08,10.09,0,7.47-5.46,25.17-5.7,25.92a.49.49,0,0,1-.15.24,1.33,1.33,0,0,1-1.13.2c-1.16-.29-2.35-1.9-3.52-4.77-2-4.83-8.66-11.4-18.21-8.48a.5.5,0,0,1-.62-.33.51.51,0,0,1,.33-.63A15.84,15.84,0,0,1,142.71,383c1.39,3.38,2.41,4,2.79,4.16a.61.61,0,0,0,.21,0c.64-2.12,5.58-18.53,5.58-25.4,0-7.34,3.11-10.05,5.73-11,.85-.32,3.7-1,7.31-1.78,5.13-1.16,11.5-2.6,13-3.35a1.85,1.85,0,0,1,1.51-.07c2.1.81,3.95,5.1,5.81,9.8l.33.84a48,48,0,0,1,2.34,8.55,17.12,17.12,0,0,1,1.05,6.32c0,3.59-2.11,9.82-2.54,11.05a11.89,11.89,0,0,1,1.24,6.56,44.07,44.07,0,0,1-2.84,8.3c0,.37-.28,2.35-.5,7.1a8.66,8.66,0,0,1-8,8.21,25.27,25.27,0,0,1-4.49-.47c-1.12,1-6.79,6.06-11.5,8.66-5.19,2.85-16,3.88-16.43,3.92Z" style="fill: rgb(38, 50, 56); transform-origin: 155.677px 384.941px;" id="eler9w6c3j13a" class="animable"></path><path d="M186.84,365.43a.78.78,0,0,1-.21,0c-4-1.74-28.38-.24-28.63-.22a.5.5,0,0,1-.06-1c1-.06,24.91-1.53,29.1.3a.5.5,0,0,1,.25.66A.49.49,0,0,1,186.84,365.43Z" style="fill: rgb(38, 50, 56); transform-origin: 172.402px 364.516px;" id="elimnwkju6fu" class="animable"></path><path d="M176.53,364.14a.5.5,0,0,1-.27-.08.51.51,0,0,1-.16-.69l3.1-4.89a.49.49,0,0,1,.69-.16.5.5,0,0,1,.15.69l-3.09,4.9A.51.51,0,0,1,176.53,364.14Z" style="fill: rgb(38, 50, 56); transform-origin: 178.073px 361.19px;" id="elofdvh1rc0zc" class="animable"></path><path d="M185.29,382.69h0l-25.51-1.8a.49.49,0,0,1-.46-.53.5.5,0,0,1,.53-.47l25.51,1.81a.49.49,0,0,1,.47.53A.5.5,0,0,1,185.29,382.69Z" style="fill: rgb(38, 50, 56); transform-origin: 172.575px 381.29px;" id="elefd5fl67ewq" class="animable"></path><path d="M161.32,397.9a.5.5,0,0,1,0-1l22.42-.52a.51.51,0,0,1,.51.49.49.49,0,0,1-.49.51l-22.42.52Z" style="fill: rgb(38, 50, 56); transform-origin: 172.535px 397.14px;" id="el3rfmbxorg13" class="animable"></path><path d="M142.77,400.48l-.14,0a.5.5,0,0,1-.35-.61l3.35-12.37a.51.51,0,0,1,.62-.36.52.52,0,0,1,.35.62l-3.35,12.37A.5.5,0,0,1,142.77,400.48Z" style="fill: rgb(38, 50, 56); transform-origin: 144.439px 393.802px;" id="el1fvcb9z9hb2" class="animable"></path><path d="M370.33,335.92c.18-4.76,1-6.47,3.41-8s5.79-6.13,5.45-17.87-2.73-31-2.73-31l-1.07.19-.2,30a1.34,1.34,0,0,1-2.67,0l-.9-29.7h-1.11s-.69,25.2-1,29.63-1.53,4.42-1.53,4.42-1.19,0-1.53-4.42-1-29.63-1-29.63h-1.12l-.9,29.7a1.34,1.34,0,0,1-2.67,0l-.2-30-1.07-.19s-2.38,19.24-2.72,31,3.06,16.34,5.44,17.87,3.24,3.24,3.41,8c0,0-5.17,74.54-5,79.32s2.22,7.17,5.46,8.37a8.37,8.37,0,0,0,9.73-3.59c1.88-3.41.34-10.41.34-10.41Z" style="fill: rgb(214, 214, 214); transform-origin: 367.98px 351.536px;" id="elyr5pmvbzly" class="animable"></path><path d="M368.54,424.53a7.81,7.81,0,0,1-2.68-.45c-3.79-1.4-5.62-4.2-5.79-8.82s4.79-76.33,5-79.37c-.18-4.85-1.08-6.2-3.18-7.55-1.83-1.17-6.05-5.32-5.68-18.31.34-11.63,2.71-30.84,2.73-31a.52.52,0,0,1,.2-.34.52.52,0,0,1,.38-.09l1.08.18a.49.49,0,0,1,.41.49l.2,30a.84.84,0,0,0,.84.82.82.82,0,0,0,.83-.8l.9-29.7a.51.51,0,0,1,.5-.49h1.12a.51.51,0,0,1,.5.49c0,.25.68,25.23,1,29.6.22,2.95.82,3.73,1,3.92.22-.19.81-1,1-3.92.33-4.37,1-29.35,1-29.6a.49.49,0,0,1,.5-.49h1.11a.51.51,0,0,1,.5.49l.9,29.7a.84.84,0,0,0,1.67,0l.2-30a.5.5,0,0,1,.41-.49l1.08-.18a.52.52,0,0,1,.38.09.52.52,0,0,1,.2.34c0,.19,2.39,19.4,2.73,31,.37,13-3.85,17.14-5.68,18.31-2.09,1.35-3,2.7-3.17,7.57l5.76,73.66c.06.23,1.55,7.16-.4,10.69A8.74,8.74,0,0,1,368.54,424.53Zm-8.67-144.89c-.38,3.16-2.35,19.9-2.66,30.42-.36,12.48,3.53,16.36,5.22,17.44,2.62,1.68,3.47,3.65,3.64,8.41-.06.79-5.17,74.62-5,79.31.15,4.17,1.78,6.68,5.14,7.92a7.91,7.91,0,0,0,9.11-3.36c1.77-3.21.31-10,.3-10.06L369.84,336v0c.17-4.76,1-6.73,3.63-8.41,1.69-1.08,5.58-5,5.22-17.44-.31-10.52-2.28-27.26-2.66-30.42l-.14,0-.2,29.57a1.84,1.84,0,0,1-3.67.05l-.89-29.22H371c-.1,3.53-.7,25.12-1,29.16-.34,4.42-1.53,4.89-2,4.89s-1.69-.47-2-4.89c-.31-4-.91-25.63-1-29.16h-.14l-.89,29.22a1.82,1.82,0,0,1-1.83,1.77,1.84,1.84,0,0,1-1.84-1.82L360,279.67Z" style="fill: rgb(38, 50, 56); transform-origin: 367.895px 351.562px;" id="elp2our07imed" class="animable"></path><path d="M396,424s-11.08-1-16.23-3.87-11.6-8.76-11.6-8.76a24.78,24.78,0,0,1-4.64.51,8.16,8.16,0,0,1-7.47-7.73c-.26-5.41-.52-7.22-.52-7.22a45.21,45.21,0,0,1-2.83-8.24c-.52-3.09,1.28-6.45,1.28-6.45s-2.57-7.21-2.57-11.08a16.52,16.52,0,0,1,1-6.18,47.69,47.69,0,0,1,2.32-8.51c1.54-3.86,4.38-11.59,7-10.31s18.29,4.39,20.36,5.16,5.41,3.09,5.41,10.56,5.67,25.78,5.67,25.78,1.54,1.29,3.86-4.38a15.4,15.4,0,0,1,18.82-8.77" style="fill: rgb(255, 255, 255); transform-origin: 383.636px 385.009px;" id="elu8fchymjzih" class="animable"></path><path d="M396,424.45h0c-.46,0-11.25-1.07-16.44-3.92-4.71-2.6-10.38-7.64-11.5-8.66a25.15,25.15,0,0,1-4.49.47,8.64,8.64,0,0,1-8-8.21c-.23-4.75-.46-6.72-.51-7.1a45.58,45.58,0,0,1-2.84-8.3,11.89,11.89,0,0,1,1.24-6.56c-.43-1.23-2.53-7.46-2.53-11.05a17.46,17.46,0,0,1,1-6.32,48,48,0,0,1,2.34-8.55l.33-.83c1.86-4.71,3.71-9,5.81-9.81a1.85,1.85,0,0,1,1.51.07c1.5.75,7.87,2.19,13,3.35,3.61.82,6.46,1.46,7.31,1.78,2.62,1,5.74,3.69,5.74,11,0,6.87,4.93,23.29,5.58,25.4a.54.54,0,0,0,.2,0c.38-.12,1.4-.78,2.79-4.16A15.84,15.84,0,0,1,416,374a.5.5,0,1,1-.29,1c-9.54-2.91-16.23,3.65-18.2,8.48-1.18,2.87-2.37,4.48-3.53,4.77a1.3,1.3,0,0,1-1.12-.2.45.45,0,0,1-.16-.24c-.23-.75-5.69-18.45-5.69-25.92,0-6.77-2.77-9.22-5.09-10.09-.79-.3-3.89-1-7.18-1.75-5.45-1.23-11.62-2.63-13.23-3.43a.81.81,0,0,0-.7,0c-1.87.71-4,6-5.24,9.23l-.33.84a47.67,47.67,0,0,0-2.29,8.4.56.56,0,0,1,0,.12,16.38,16.38,0,0,0-1,6c0,3.74,2.52,10.85,2.54,10.92a.47.47,0,0,1,0,.4s-1.71,3.24-1.23,6.13a44.81,44.81,0,0,0,2.8,8.12.65.65,0,0,1,0,.13c0,.08.26,1.89.51,7.27a7.73,7.73,0,0,0,7,7.25,24.88,24.88,0,0,0,4.53-.5.49.49,0,0,1,.45.12c.06.06,6.46,5.92,11.5,8.69s15.93,3.8,16,3.81a.49.49,0,0,1,.45.54A.5.5,0,0,1,396,424.45Z" style="fill: rgb(38, 50, 56); transform-origin: 383.65px 384.966px;" id="el1ukksijjnkh" class="animable"></path><path d="M352.44,365.43a.5.5,0,0,1-.2-1c4.18-1.83,28.08-.36,29.09-.3a.5.5,0,0,1,.47.53.48.48,0,0,1-.53.47c-.24,0-24.66-1.52-28.63.22A.71.71,0,0,1,352.44,365.43Z" style="fill: rgb(38, 50, 56); transform-origin: 366.816px 364.477px;" id="elfurr1nhcg9s" class="animable"></path><path d="M362.75,364.14a.51.51,0,0,1-.43-.23l-3.09-4.9a.5.5,0,1,1,.85-.53l3.09,4.89a.51.51,0,0,1-.42.77Z" style="fill: rgb(38, 50, 56); transform-origin: 361.198px 361.192px;" id="eloz0398yjl" class="animable"></path><path d="M354,382.69a.5.5,0,0,1-.5-.46.49.49,0,0,1,.47-.53l25.51-1.81a.52.52,0,0,1,.54.47.5.5,0,0,1-.47.53L354,382.69Z" style="fill: rgb(38, 50, 56); transform-origin: 366.76px 381.29px;" id="elg6w6rsh27w9" class="animable"></path><path d="M378,397.9h0l-22.42-.52a.49.49,0,0,1-.49-.51.52.52,0,0,1,.51-.49l22.42.52a.5.5,0,0,1,0,1Z" style="fill: rgb(38, 50, 56); transform-origin: 366.805px 397.14px;" id="el5skov38z4r" class="animable"></path><path d="M396.51,400.48a.5.5,0,0,1-.48-.37l-3.36-12.37a.51.51,0,0,1,.36-.62.5.5,0,0,1,.61.36L397,399.85a.5.5,0,0,1-.35.61Z" style="fill: rgb(38, 50, 56); transform-origin: 394.835px 393.792px;" id="elvpfgltr2vxk" class="animable"></path><path d="M233.87,379.48l-7.37,7.16,1.23,2.31s-7.94,3.58-13.31,8.44S201.78,412.27,204,416.22a43,43,0,0,0,5,7H335s6.66-7.93,7.18-13.82.51-9.21-1.54-12.54-9.21-3.58-13-4.61-6.46.78-8.6-1.9,2.38-7.51-1.16-12-15.07-6-18.14-5.78a48.86,48.86,0,0,1-8.44-.51,29.25,29.25,0,0,0-5.6.47,7.41,7.41,0,0,0-.93-5.95c-1.92-3-13.69-4-17.53-3s-13.56,3.58-19.45,6.4S233.87,379.48,233.87,379.48Z" style="fill: rgb(255, 255, 255); transform-origin: 273.029px 393.212px;" id="elo5k9546ghno" class="animable"></path><path d="M335.18,423.74H208.82l-.14-.16a42.83,42.83,0,0,1-5.11-7.11c-2.47-4.38,5.41-14.83,10.51-19.45a59.31,59.31,0,0,1,13-8.3l-1.16-2.17,7.67-7.45c.32-.28,8-6.73,13.92-9.54s15.2-5.27,19.22-6.35l.32-.08c4-1.06,16,0,18.08,3.18a8,8,0,0,1,1.17,5.61,25,25,0,0,1,5-.36c.49,0,1.06.11,1.7.18a34.09,34.09,0,0,0,6.66.33c3.35-.28,14.92,1.34,18.57,6,2.14,2.72,1.53,5.59,1,7.9-.36,1.68-.67,3.13.12,4.12,1.15,1.44,2.44,1.41,4.22,1.37a14.36,14.36,0,0,1,4.12.36c.95.26,2.14.46,3.39.69,3.9.69,8.31,1.47,10,4.14,2.05,3.34,2.15,6.52,1.61,12.84-.53,6-7,13.78-7.3,14.1Zm-125.91-1H334.71c1-1.2,6.47-8.18,6.92-13.36.53-6.09.44-9.14-1.46-12.24-1.41-2.29-5.78-3.06-9.28-3.68-1.28-.22-2.48-.44-3.48-.7a13.2,13.2,0,0,0-3.83-.33c-1.84.05-3.57.08-5-1.75-1.08-1.36-.71-3.1-.32-4.95.5-2.32,1-4.72-.85-7.07-3.37-4.28-14.58-5.85-17.7-5.59a36,36,0,0,1-6.86-.33l-1.67-.19a29.47,29.47,0,0,0-5.46.47l-.82.15.26-.79a7,7,0,0,0-.88-5.52c-1.68-2.61-13-3.82-17-2.77l-.32.09c-4,1.06-13.36,3.56-19,6.28s-13.32,9.08-13.7,9.39l-7.08,6.89,1.3,2.44-.49.22c-.08,0-7.92,3.61-13.18,8.36-5.42,4.91-12.3,14.68-10.31,18.22A42.54,42.54,0,0,0,209.27,422.74Z" style="fill: rgb(38, 50, 56); transform-origin: 273.036px 393.236px;" id="el3whq846m1ur" class="animable"></path><path d="M334.06,401.8c-1.8,0-4.62-1.61-10.08-6.7-9.61-9-16.09-11.16-16.16-11.18l.92-2.85c.29.09,7.12,2.34,17.29,11.84,5,4.66,7,5.63,7.74,5.82a12.34,12.34,0,0,0-1-4.3c-2.39-6.86-16.35-16.41-25.76-17.62s-65.36,5.29-71.57,7c-4.48,1.24-8,4.93-11.48,8.49-.66.69-1.32,1.38-2,2-2.65,2.64-7.47,5.29-9.65,3.39s.26-5.61,2.26-8.25c7.24-9.54,22.17-15.33,22.8-15.57l1.07,2.8c-.14,0-14.77,5.73-21.48,14.58a14.08,14.08,0,0,0-2.43,4.08,11.72,11.72,0,0,0,5.31-3.16c.65-.64,1.29-1.31,1.94-2,3.72-3.85,7.57-7.84,12.84-9.3,6.5-1.81,62.65-8.41,72.75-7.1,10.68,1.37,25.44,11.63,28.21,19.6,1.1,3.17,1.95,6.58-.1,7.92A2.63,2.63,0,0,1,334.06,401.8Z" style="fill: rgb(255, 255, 255); transform-origin: 274.091px 387.7px;" id="elcpa6t1evrm8" class="animable"></path><path d="M334.06,402.3c-2.17,0-5.29-2-10.42-6.84-9.48-8.84-15.91-11-16-11.06l-.47-.16,1.22-3.8.47.15c.29.09,7.2,2.35,17.48,12,3.8,3.55,5.84,4.91,6.86,5.43a18.68,18.68,0,0,0-.9-3.38C330,387.87,316.25,378.5,307,377.31c-9.5-1.23-65.19,5.28-71.38,7-4.34,1.21-7.85,4.85-11.25,8.36-.66.69-1.33,1.38-2,2-2.67,2.68-7.81,5.62-10.33,3.42-2.76-2.41.84-7.15,2.19-8.93,7.34-9.68,22.38-15.5,23-15.74l.47-.18,1.43,3.73-.47.18c-.14.06-14.68,5.75-21.26,14.43a19.92,19.92,0,0,0-2,3,12.81,12.81,0,0,0,4.1-2.74l1.92-2c3.78-3.92,7.68-8,13.07-9.45,6.53-1.81,62.83-8.43,73-7.12,10.82,1.39,25.79,11.83,28.61,19.94,1.17,3.35,2,7-.3,8.5a3.11,3.11,0,0,1-1.74.52Zm-25.62-18.68c1.67.67,7.62,3.4,15.88,11.11,4.8,4.48,7.9,6.57,9.74,6.57a2,2,0,0,0,1.19-.36c1.77-1.15.95-4.35-.09-7.33-2.72-7.83-17.27-17.92-27.8-19.28-10.07-1.3-66.07,5.29-72.56,7.09-5.13,1.43-8.93,5.36-12.6,9.17-.67.69-1.32,1.36-2,2a12.07,12.07,0,0,1-5.58,3.29l-.77.13.21-.76a14.39,14.39,0,0,1,2.51-4.24c6.16-8.12,18.64-13.5,21.24-14.56l-.72-1.87c-2.65,1.07-15.56,6.59-22.11,15.22-3,3.89-3.71,6.37-2.33,7.58,1.92,1.68,6.52-.93,9-3.38.65-.65,1.31-1.33,2-2,3.49-3.61,7.1-7.35,11.71-8.63,6.22-1.73,62.21-8.27,71.76-7s23.74,11,26.17,18a12.89,12.89,0,0,1,1,4.49l0,.62-.6-.17c-.84-.23-3-1.31-7.95-5.94-8.74-8.15-14.92-10.9-16.63-11.56Z" style="fill: rgb(38, 50, 56); transform-origin: 274.142px 387.7px;" id="el4mofbc18mz" class="animable"></path><path d="M294.19,426.78c-7,0-13.88-.87-19.27-3.5-2.09-1-4.12-2.06-6.12-3.09-10.06-5.14-19.55-10-33.41-10.73a13.17,13.17,0,0,0-4.07.2c.85,1.37,4.89,4.25,7.14,5.86,4.82,3.43,7.13,5.17,7.13,7a2.61,2.61,0,0,1-1.82,2.42c-4.39,1.91-19.05-.34-23.28-4.29-2-1.89-6.76-6.3-5.74-11.2.76-3.7,4.46-6.69,11.31-9.14,4.9-1.75,6.78-3.62,6.91-4.79.07-.67-.52-1.19-1-1.51-2.4-1.52-7.43-1.59-12,1.26-6.75,4.2-13.56,13.52-12.93,20.69.29,3.25,2.16,5.59,5.57,7l-1.12,2.79c-4.48-1.79-7.05-5.07-7.44-9.48-.75-8.54,6.86-18.84,14.34-23.49,5.68-3.53,11.94-3.31,15.2-1.26a4.58,4.58,0,0,1,2.41,4.38c-.21,1.95-1.93,4.8-8.89,7.29-5.61,2-8.85,4.4-9.38,6.92-.59,2.88,2.28,6,4.85,8.39,3.51,3.28,16.73,5,19.79,3.88a48.8,48.8,0,0,0-5.6-4.37c-6-4.26-9.31-6.8-8.41-9.38.75-2.15,3.92-2.29,7.24-2.11,14.49.76,24.27,5.76,34.62,11,2,1,4,2.05,6.07,3.06,11.82,5.77,33.11,2.19,42.2.66l1.16-.2c8.42-1.4,10.48-2.88,14.19-8,1.51-2.1,2.59-5.16,1.37-6.9-1.41-2-5.86-2.11-12.22-.29a117.88,117.88,0,0,0-18.19,7.36c-7.89,3.75-14.12,6.72-18.71,4.6-1.76-.81-3.57-1.89-3.68-3.68-.13-2.27,2.37-3.79,7.34-6.82,1.94-1.19,4.37-2.67,7-4.45,5.2-3.47,7-6.52,6.38-7.89-.66-1.56-5.56-3.4-19.8-.38a102.52,102.52,0,0,0-24.43,8.58c-4.63,2.21-7.18,3.42-9.28,2.34-1.54-.79-2-2.55-2.24-3.81-1.18-6.6,4.79-9.47,11.11-12.51a64.18,64.18,0,0,0,10-5.6c3.88-2.83,4.54-4.28,4.65-4.65-.58-.31-4.44-1.55-22.92,4.32-20.3,6.45-22.74,5.35-23.69,3.39s.68-4.76,12.58-12.89c17.49-11.95,31-12.14,32.29-12.15,1.47-.11,11.46-.77,15.33,2.77,2.66,2.45.49,5.75-1.1,8.16-.81,1.24-1.92,2.93-1.75,3.65,0,.15.2.31.49.47,1.16.65,2.5,0,5.17-1.33,4.06-2.07,10.19-5.19,20.36-3.31,6.32,1.16,9.61,2.75,10.65,5.14s-.43,4.84-1.89,7.16a19.71,19.71,0,0,0-1.83,3.38c-.35.94-.68,1.85-.8,2.36.59.13,1.78.22,2.94.32,1.57.12,3.71.3,6.45.66,2.5.33,4.64.48,6.52.61,6.5.46,10.43.73,12.56,8.19,1.46,5.1-.8,10.47-2.94,14.07a34.82,34.82,0,0,1-8.31,9.54L331.44,421c3.89-2.85,12.32-12.75,10.14-20.37-1.55-5.43-3.48-5.57-9.88-6-1.92-.13-4.11-.29-6.7-.63s-4.77-.52-6.3-.64c-3.14-.25-4.57-.37-5.37-1.62s-.28-2.56.62-5a21.62,21.62,0,0,1,2.14-4c1.09-1.74,2.12-3.38,1.69-4.37-.33-.74-1.86-2.18-8.45-3.39-9.17-1.7-14.54,1-18.46,3-2.89,1.47-5.39,2.74-8,1.27a3.75,3.75,0,0,1-1.94-2.37c-.48-2,.87-4,2.17-6,1.59-2.42,2.24-3.69,1.57-4.3-2.25-2.05-9.24-2.31-13.12-2h-.16c-.12,0-13.45-.1-30.61,11.62-8,5.47-10.46,7.92-11.21,8.94,1.5.09,6.06-.43,19.71-4.77,24.11-7.66,25.89-4.14,26.56-2.82,1.08,2.14-.76,4.9-5.62,8.43a65.88,65.88,0,0,1-10.44,5.88c-6.73,3.23-10.21,5.12-9.46,9.28.19,1.08.47,1.57.67,1.67.77.4,3.74-1,6.61-2.38a105.53,105.53,0,0,1,25.1-8.81c13.38-2.83,21.4-2.09,23.19,2.15,1.37,3.26-1.36,7.47-7.49,11.56-2.72,1.81-5.17,3.31-7.14,4.51-2.64,1.61-5.37,3.27-5.85,4.07a6.27,6.27,0,0,0,1.89,1.15c3.31,1.52,9-1.17,16.16-4.59A119.57,119.57,0,0,1,322.11,403c8-2.29,13.22-1.8,15.51,1.45s.63,7.56-1.4,10.37c-4.09,5.67-6.85,7.68-16.12,9.22l-1.16.2C313.09,425.18,303.6,426.78,294.19,426.78Z" style="fill: rgb(255, 255, 255); transform-origin: 274.482px 394.135px;" id="el9jrnqnysg4" class="animable"></path><path d="M294.19,427.28c-8.1,0-14.66-1.2-19.49-3.55-2.09-1-4.12-2.07-6.13-3.09-10-5.12-19.46-9.95-33.2-10.68a18.33,18.33,0,0,0-3.14,0,60.34,60.34,0,0,0,6.52,5.11c5.09,3.63,7.34,5.32,7.34,7.41A3.12,3.12,0,0,1,244,425.4c-4.61,2-19.39-.24-23.83-4.39-2.08-1.94-6.95-6.49-5.88-11.66.8-3.89,4.61-7,11.63-9.51,5-1.79,6.5-3.59,6.58-4.38.05-.42-.48-.83-.8-1-2.27-1.43-7.07-1.47-11.48,1.27-6.63,4.12-13.32,13.23-12.7,20.22.27,3,2,5.24,5.25,6.53l.47.18-1.49,3.72-.46-.19c-4.67-1.86-7.35-5.29-7.75-9.89-.77-8.73,7-19.24,14.57-24,5.85-3.63,12.34-3.38,15.72-1.25a5.07,5.07,0,0,1,2.65,4.85c-.23,2.1-2,5.14-9.22,7.71-5.36,1.91-8.58,4.24-9.06,6.55-.54,2.63,2.23,5.62,4.7,7.93,3.16,2.94,14.5,4.53,18.44,4-1.23-1.07-3.37-2.6-4.88-3.68-6.17-4.4-9.61-7-8.59-9.95.86-2.46,4.23-2.64,7.74-2.45,14.6.77,24.42,5.79,34.81,11.11,2,1,4,2.05,6.07,3.05,11.67,5.7,32.84,2.14,41.88.62l1.18-.2c8.42-1.4,10.26-2.82,13.86-7.81,1.46-2,2.4-4.85,1.37-6.32-1.25-1.79-5.62-1.83-11.68-.1A117.06,117.06,0,0,0,305,413.66c-8,3.81-14.33,6.81-19.13,4.59-1.89-.87-3.85-2.05-4-4.1-.15-2.57,2.43-4.15,7.57-7.28,1.94-1.18,4.35-2.65,7-4.43,5.27-3.52,6.6-6.34,6.2-7.29s-4.77-3.15-19.24-.08a102.18,102.18,0,0,0-24.32,8.55c-4.77,2.27-7.4,3.52-9.72,2.33-1.74-.9-2.26-2.81-2.51-4.17-1.24-7,4.89-9.93,11.39-13a63.19,63.19,0,0,0,9.91-5.56,16,16,0,0,0,4.24-3.95c-1.41-.29-6.41-.47-22.07,4.51-20.75,6.59-23.16,5.46-24.29,3.13s.48-5.14,12.75-13.53c16.93-11.57,30.1-12.22,32.57-12.23,1.89-.15,11.71-.72,15.66,2.9,3,2.74.58,6.39-1,8.81-.54.82-1.79,2.72-1.69,3.24,0,0,.07.06.25.16.9.51,2,0,4.71-1.34,4.11-2.1,10.33-5.27,20.67-3.35,6.5,1.2,9.9,2.87,11,5.43s-.47,5.31-1.92,7.63a18.72,18.72,0,0,0-1.79,3.28c-.23.64-.48,1.29-.64,1.79.62.08,1.48.15,2.33.22,1.59.13,3.74.3,6.5.66,2.48.33,4.61.48,6.49.61,6.49.46,10.77.76,13,8.55,1.51,5.28-.8,10.78-3,14.46a35,35,0,0,1-8.45,9.69l-.4.29-2.25-3.06c-2.48,1.61-5.63,2.58-10.68,3.43l-1.16.19C313.26,425.66,303.64,427.28,294.19,427.28Zm-60.34-18.36c.45,0,1,0,1.57,0,14,.74,23.5,5.62,33.61,10.79,2,1,4,2.06,6.11,3.08,4.69,2.29,11.1,3.45,19.05,3.45,9.36,0,18.94-1.61,24.65-2.57l1.17-.2c9.11-1.52,11.81-3.48,15.8-9,1.94-2.68,3.46-6.85,1.4-9.79s-7.18-3.49-15-1.26a118.1,118.1,0,0,0-18.55,7.5c-7.32,3.48-13.08,6.22-16.61,4.59a6.65,6.65,0,0,1-2-1.26l-.25-.27.19-.32c.51-.85,2.62-2.17,6-4.25,2-1.2,4.42-2.69,7.12-4.5C304,401,306.69,397,305.42,394c-1.65-3.94-9.69-4.6-22.62-1.86a105.19,105.19,0,0,0-25,8.78c-4.12,2-6.15,2.83-7.05,2.37-.42-.21-.73-.9-.93-2-.81-4.51,3-6.57,9.73-9.82a65.16,65.16,0,0,0,10.37-5.83c4.57-3.32,6.4-5.94,5.46-7.8-.56-1.11-2.26-4.46-26,3.07-13.79,4.38-18.38,4.88-19.89,4.79l-.91-.05.54-.74c.86-1.19,3.53-3.73,11.32-9.06,17.26-11.79,30.86-11.72,31-11.7,2.91-.25,10.89-.34,13.56,2.11,1,.93.07,2.56-1.49,4.94-1.25,1.89-2.53,3.84-2.1,5.61a3.29,3.29,0,0,0,1.69,2.06c2.38,1.34,4.66.18,7.54-1.29,4-2,9.43-4.8,18.77-3.07,5.12.94,8.17,2.22,8.81,3.68.55,1.23-.5,2.9-1.71,4.83a21.36,21.36,0,0,0-2.1,3.93c-.93,2.53-1.28,3.6-.67,4.56s1.93,1.14,5,1.39c1.44.12,3.62.29,6.33.65s4.73.49,6.65.62c6.51.46,8.7.61,10.34,6.38,2.18,7.6-5.81,17.35-9.92,20.61l1.18,1.61a34.79,34.79,0,0,0,7.78-9.09c2.09-3.52,4.3-8.74,2.89-13.67-2-7.12-5.61-7.37-12.11-7.83-1.89-.13-4-.28-6.55-.62-2.73-.35-4.87-.53-6.43-.65-1.19-.1-2.39-.2-3-.33l-.5-.11.12-.5c.13-.54.47-1.45.82-2.42a20.26,20.26,0,0,1,1.88-3.46c1.45-2.31,2.82-4.5,1.86-6.7s-4.15-3.72-10.29-4.85c-10-1.85-16,1.23-20,3.26-2.62,1.33-4.2,2.14-5.65,1.32a1.33,1.33,0,0,1-.73-.79c-.2-.85.67-2.27,1.83-4,1.93-2.94,3.34-5.53,1.17-7.52-3.73-3.42-13.81-2.73-14.95-2.64-2.45,0-15.35.65-32.05,12.06C227.88,382,226.1,384.67,227,386.42s3.22,2.66,23.09-3.65c18.2-5.78,22.44-4.74,23.3-4.29l.37.19-.12.4c-.16.53-.94,2.08-4.84,4.91a63.12,63.12,0,0,1-10.05,5.64c-6.15,3-11.95,5.75-10.84,12,.2,1.15.63,2.76,2,3.46,1.88,1,4.35-.21,8.83-2.35a103.52,103.52,0,0,1,24.55-8.62c13.61-2.88,19.47-1.44,20.36.67s-1.75,5.3-6.57,8.51c-2.68,1.79-5.11,3.27-7.05,4.45-4.8,2.93-7.21,4.4-7.1,6.37.09,1.53,1.77,2.5,3.39,3.26,4.37,2,10.5-.9,18.27-4.59a117.24,117.24,0,0,1,18.28-7.4c6.68-1.91,11.21-1.73,12.77.49,1.37,1.95.29,5.16-1.38,7.47-3.8,5.27-5.9,6.78-14.5,8.22l-1.17.19c-9.15,1.54-30.54,5.14-42.5-.7-2.06-1-4-2-6-3-10.35-5.3-20.08-10.28-34.46-11-3.13-.16-6.1-.06-6.75,1.78-.78,2.23,2.62,4.8,8.23,8.81a46.84,46.84,0,0,1,5.68,4.43l.49.55-.69.25c-3.43,1.27-16.71-.62-20.3-4-2.66-2.49-5.64-5.74-5-8.86.56-2.71,3.92-5.23,9.71-7.29,6.71-2.4,8.36-5.06,8.55-6.88a4.11,4.11,0,0,0-2.18-3.9c-3.12-2-9.16-2.16-14.67,1.26-7.35,4.57-14.83,14.68-14.1,23,.36,4.05,2.66,7.11,6.67,8.86l.74-1.86c-3.3-1.46-5.13-3.87-5.42-7.18-.64-7.35,6.29-16.87,13.17-21.15,4.76-3,10-2.86,12.54-1.26,1.15.72,1.32,1.48,1.27,2-.19,1.71-2.9,3.66-7.25,5.21-6.66,2.38-10.26,5.25-11,8.77-1,4.62,3.63,8.9,5.59,10.73,4,3.77,18.56,6,22.74,4.2a2.12,2.12,0,0,0,1.52-2c0-1.58-2.37-3.35-6.92-6.59-3.08-2.21-6.44-4.66-7.28-6l-.34-.56.63-.19A9.91,9.91,0,0,1,233.85,408.92Zm52.27,4.95a10.31,10.31,0,0,0,1.39.75c3.1,1.43,8.67-1.22,15.74-4.58A119.49,119.49,0,0,1,322,402.48c8.24-2.36,13.64-1.8,16.06,1.64,2,2.89,1.11,6.69-.52,9.57,2.71-3.95,4.77-8.78,3.59-12.9-1.45-5.1-3-5.21-9.43-5.66-1.95-.14-4.14-.29-6.73-.63s-4.76-.52-6.28-.64c-3.21-.26-4.82-.39-5.75-1.85s-.35-2.94.58-5.45a21.67,21.67,0,0,1,2.18-4.11c.93-1.48,2-3.15,1.65-3.9-.18-.41-1.3-1.85-8.08-3.1-9-1.66-14.28,1-18.14,3-2.89,1.48-5.63,2.87-8.48,1.27a4.2,4.2,0,0,1-2.17-2.7c-.53-2.19.87-4.33,2.23-6.39.74-1.13,2.12-3.23,1.65-3.66-2-1.85-8.67-2.2-12.74-1.86h-.26c-.1,0-13.18-.14-30.27,11.54-6.33,4.32-9.13,6.72-10.37,8,2.22-.18,7.22-1.15,18.44-4.72,24.51-7.79,26.36-4.13,27.16-2.56,1.21,2.39-.68,5.36-5.77,9.06A66.94,66.94,0,0,1,260,392.33c-6.51,3.13-9.87,4.94-9.19,8.75a2.93,2.93,0,0,0,.44,1.33c.59.25,4.06-1.42,6.13-2.41a105.9,105.9,0,0,1,25.22-8.85c13.84-2.93,21.83-2.1,23.75,2.45,1.47,3.5-1.33,7.94-7.67,12.17-2.73,1.81-5.18,3.31-7.15,4.51A46.46,46.46,0,0,0,286.12,413.87Z" style="fill: rgb(38, 50, 56); transform-origin: 274.445px 394.153px;" id="elqgg1la87caa" class="animable"></path><path d="M227.56,426.07a26.93,26.93,0,0,1-10.12-1.69c-6.37-2.58-8.32-6.47-8.83-9.28A13,13,0,0,1,212.38,404a2.86,2.86,0,0,1,2.27-.8c2.29.2,4.43,3,7.39,6.87,2.78,3.65,6.25,8.2,10,10.37,2.63,1.51,4.69,1.91,5.53,1.07s.7-3.28-.42-5.2c-.76-1.3-3.88-3.37-6.64-5.2-5-3.33-9.76-6.48-10.06-9.92a4,4,0,0,1,1.36-3.32c3.08-2.92,9.33-1.89,16.14,1.14a3.29,3.29,0,0,1-.54-1.63c-.19-3.36,4.39-7.64,12-14.27,3.71-3.26,8.59-7.53,10-9.93a93.15,93.15,0,0,0-8.84,7.27c-8.13,7.21-11.41,9.81-13.58,8.54a2.22,2.22,0,0,1-1.1-1.7c-.48-3.76,9.71-14.24,14.11-18.58l.06-.05c5.59-4.94,15.32-7.76,20.34-3.91,2.91,2.24-.26,7.25-3.32,12.1l-.62,1c.53-.56,1.07-1.16,1.59-1.74,2.84-3.19,6.06-6.79,10.13-6.79s6.31.81,11.07,2.61c2.49.94,5.6,2.1,10.14,3.6a83.82,83.82,0,0,1,9.73,4.06,3.4,3.4,0,0,1,1.34.38,3.3,3.3,0,0,1,.93.75c12.65,6.46,26.82,16.43,27.75,23.54,1.15,8.77,1.53,15.24-4.15,18.53-5.44,3.14-13.66,1.54-22.58-4.4a26.5,26.5,0,0,0-13.25-4.89c-.8.4-1.61.79-2.44,1.16-12.26,5.62-23.95,11-34.61,4.94l-1.48.38C248,423.16,236.68,426.07,227.56,426.07Zm-13.17-19.91a10.12,10.12,0,0,0-2.83,8.4c.55,3,2.91,5.38,7,7,3.28,1.32,7.32,1.67,11.95,1.38-4.27-2.49-7.92-7.27-10.86-11.12C217.93,409.61,215.33,406.2,214.39,406.16ZM227,399.1a4.39,4.39,0,0,0-3.1.92c-.48.44-.45.74-.44.88.18,2,5.12,5.28,8.73,7.68s6.46,4.29,7.57,6.18a9.14,9.14,0,0,1,1.14,6.77c5.52-1.07,11.53-2.6,17.88-4.22-.73-.59-1.45-1.25-2.17-2C246.88,405.61,233.49,399.1,227,399.1Zm76.53,12A30.71,30.71,0,0,1,314,415.85c7.81,5.21,15.06,6.82,19.4,4.3,3.78-2.19,3.89-6.37,2.69-15.54-.19-1.48-1.26-3.22-3-5.11.49,4.27-2,10.18-6.47,12.53-3.5,1.82-8.65.72-12.82-2.74a17.84,17.84,0,0,1-2.83-2.94C308.75,407.89,306.24,409.51,303.53,411.07Zm-36.77,7.3c7,2.25,14.92-.35,25.15-4.88a120.65,120.65,0,0,0-17.52,3C271.82,417.11,269.27,417.74,266.76,418.37Zm-25.51-17.81a75.1,75.1,0,0,1,17.48,12.66,23.57,23.57,0,0,0,3.8,3.13c3.65-.93,7.39-1.87,11.18-2.76C285,411,292.62,410,298.56,410.38a106.64,106.64,0,0,0,10.89-6.57,20.27,20.27,0,0,1-1-15.3c1.05-3.47.94-5,.75-5.56l-.91-.45c-2.72.36-10.49,6.15-19,16.36-5.84,7-13,10.57-20.08,10a16.4,16.4,0,0,1-12.89-7.66,4.35,4.35,0,0,1-.46-3.73c1.31-3.92,8.23-6.69,15.56-9.62,5-2,11.2-4.49,12-6.4a.45.45,0,0,0,0-.39c-1.78-1.28-13.63,5.59-20,9.27-10.54,6.11-17.88,10.2-22.11,10.2Zm72.29,4.09a14.94,14.94,0,0,0,2.25,2.33c3.16,2.62,7.16,3.62,9.52,2.39,3.57-1.85,5.53-7.07,4.77-10.16a2.38,2.38,0,0,0-2.54-2.11c-3.08,0-7.35,2.95-12.76,6.69ZM282.92,378a4.43,4.43,0,0,1,1.4.2,3,3,0,0,1,1.86,1.71,3.45,3.45,0,0,1,0,2.71c-1.28,3.08-7,5.37-13.66,8-5.77,2.32-12.95,5.19-13.83,7.8a1.35,1.35,0,0,0,.19,1.22,13.39,13.39,0,0,0,10.55,6.21c6.11.47,12.34-2.7,17.54-8.95.54-.63,10.29-12.26,17.67-16.15-2.22-1-4.32-1.82-6.24-2.45-4.59-1.52-7.73-2.7-10.25-3.65-4.67-1.75-6.42-2.41-10-2.41-2.72,0-5.47,3.07-7.89,5.78-2.16,2.42-4,4.51-6.14,4.94a2,2,0,0,1-2.19-.75c-1-1.41.22-3.29,2.59-7,1.32-2.11,4.43-7,4-8.18-2.69-2-10.27-1.63-16.44,3.81-5.48,5.4-11.3,12-12.83,14.95,2.19-1.3,6.38-5,9.33-7.62,7.71-6.84,10.83-9.33,12.93-8.39a2.32,2.32,0,0,1,1.28,2.27c0,3.13-4.32,7.08-11.38,13.27-4.41,3.87-11.06,9.7-10.94,11.85,0,.07,0,.14.18.26,2.09,1.46,14.12-5.51,21.31-9.67C272.14,381.85,279,378,282.92,378Zm29.38,6.56a22,22,0,0,1-1,4.81c-1.68,5.55-.85,9.75.62,12.72l1.14-.78c5.67-3.92,10.18-7,14.12-7.21A111.13,111.13,0,0,0,312.3,384.57Z" style="fill: rgb(255, 255, 255); transform-origin: 274.16px 394.516px;" id="el9dhzhb1fmeh" class="animable"></path><path d="M227.56,426.57h0a27.29,27.29,0,0,1-10.31-1.73c-6.58-2.66-8.6-6.72-9.13-9.65A13.58,13.58,0,0,1,212,403.6a3.43,3.43,0,0,1,2.65-.93c2.52.22,4.71,3.09,7.74,7.07,2.77,3.62,6.2,8.11,9.88,10.23,2.67,1.54,4.39,1.69,4.92,1.16s.58-2.76-.49-4.6c-.7-1.2-3.91-3.32-6.49-5-5.12-3.4-9.95-6.61-10.27-10.3a4.45,4.45,0,0,1,1.51-3.72c2.8-2.66,8.29-2.45,15.53.55a4.62,4.62,0,0,1-.09-.65c-.2-3.59,4.45-7.94,12.13-14.68,2.24-2,5-4.36,7.05-6.46-1.79,1.49-3.74,3.22-5.25,4.56-8.5,7.52-11.69,10-14.16,8.6a2.74,2.74,0,0,1-1.35-2.08c-.48-3.83,8.73-13.54,14.26-19l.08-.08c5.74-5.07,15.76-7.92,21-3.92,2.5,1.92,1.17,5.42-1,9.22,2.42-2.53,5.16-4.77,8.5-4.77,4.23,0,6.43.83,11.24,2.64,2.49.94,5.59,2.1,10.12,3.6a82.2,82.2,0,0,1,9.71,4,3.81,3.81,0,0,1,2.46,1.22c13.24,6.78,27,16.77,27.93,23.87,1.18,9,1.55,15.59-4.4,19-5.61,3.24-14,1.64-23.1-4.42A26.16,26.16,0,0,0,299.21,414c-.76.38-1.53.75-2.32,1.11-12.37,5.66-24.05,11-34.89,5l-1.29.33C248.39,423.58,236.75,426.57,227.56,426.57Zm-13.17-22.91a2.41,2.41,0,0,0-1.67.68A12.5,12.5,0,0,0,209.1,415c.49,2.69,2.37,6.41,8.53,8.9a26.11,26.11,0,0,0,9.93,1.66c9.06,0,20.64-3,32.9-6.11l1.68-.43.17.1c10.45,5.9,22,.62,34.17-5,.82-.38,1.62-.76,2.41-1.16L299,413h.14a27.05,27.05,0,0,1,13.49,5c8.75,5.83,16.78,7.43,22.05,4.39s5-9.46,3.91-18c-.89-6.75-14.44-16.49-27.48-23.15L311,381a2.62,2.62,0,0,0-.79-.64,2.84,2.84,0,0,0-1.14-.32l-.18-.05a83.08,83.08,0,0,0-9.67-4c-4.55-1.51-7.66-2.68-10.16-3.62-4.7-1.77-6.84-2.57-10.89-2.57-3.84,0-7,3.52-9.76,6.62-.52.58-1.06,1.19-1.6,1.75l-3.4,3.58,3.24-5.18c2.94-4.65,6-9.47,3.43-11.43-4.82-3.71-14.25-.93-19.7,3.88-9.09,9-14.32,15.75-14,18.2a1.74,1.74,0,0,0,.86,1.33c1.88,1.1,5.23-1.6,13-8.48a93.85,93.85,0,0,1,8.9-7.33l1.71-1.07-1,1.75c-1.43,2.47-6.22,6.67-10.06,10-7.26,6.36-12,10.75-11.81,13.88a2.64,2.64,0,0,0,.46,1.38l.92,1.36h2c4.06,0,11.29-4,21.86-10.13l.09-.05c11.66-6.75,18.75-10.42,20.45-9.2l.11.08.06.13a.93.93,0,0,1,0,.78c-.81,1.95-5.82,4.09-12.28,6.67-7.21,2.89-14,5.62-15.27,9.32a3.88,3.88,0,0,0,.42,3.31,15.9,15.9,0,0,0,12.49,7.42c6.95.53,13.93-3,19.66-9.85,8.19-9.82,16.26-16.12,19.33-16.54l.15,0,1.24.62.06.2c.23.76.3,2.4-.75,5.86a19.88,19.88,0,0,0,1,14.92l.2.4-.36.24a106.45,106.45,0,0,1-10.94,6.6l-.13.07h-.13c-6-.38-13.64.62-24.71,3.2-3.81.89-7.62,1.85-11.16,2.75l-.21.06-.19-.12a24.27,24.27,0,0,1-3.88-3.19A74.63,74.63,0,0,0,241,401l-1.66-.87-1.58-.7c-7.42-3.3-13-3.74-15.6-1.24a3.52,3.52,0,0,0-1.2,2.91c.28,3.21,4.92,6.29,9.83,9.55,2.94,1.95,6,4,6.8,5.37,1.25,2.13,1.4,4.74.34,5.81s-3.25.66-6.13-1c-3.86-2.22-7.35-6.8-10.17-10.49s-5-6.5-7-6.68Zm28.55-2.75a75.17,75.17,0,0,1,16.14,12,24,24,0,0,0,3.55,2.94c3.48-.89,7.22-1.83,11-2.71,11.08-2.58,18.76-3.58,24.85-3.23a105.22,105.22,0,0,0,10.35-6.23,21.07,21.07,0,0,1-.84-15.27c.94-3.09.91-4.5.8-5.08l-.55-.27c-2.52.5-10,5.86-18.55,16.17-5.94,7.13-13.23,10.75-20.5,10.19a16.86,16.86,0,0,1-13.27-7.89,4.87,4.87,0,0,1-.52-4.15,7.4,7.4,0,0,1,2.24-3.07C251.09,397.94,246.35,400.29,242.94,400.91Zm39.74-19.52c-2.49,0-12.2,5.48-17.42,8.49,1.88-.83,3.91-1.64,6-2.46,4.29-1.72,10.72-4.29,11.67-6Zm-55.09,42.18a24.55,24.55,0,0,1-9.21-1.51c-4.27-1.73-6.73-4.22-7.31-7.41a10.58,10.58,0,0,1,3-8.86l.16-.14h.21c1,0,2.61,1.93,5.63,5.89s6.53,8.56,10.72,11l1.42.83-1.64.11C229.51,423.54,228.53,423.57,227.59,423.57Zm-13.06-16.85a9.66,9.66,0,0,0-2.48,7.75c.52,2.83,2.77,5.07,6.7,6.66a25,25,0,0,0,10.18,1.42c-3.79-2.66-7-6.91-9.68-10.39C218.09,410.65,215.49,407.24,214.53,406.72Zm25.67,15.46.22-.79a8.67,8.67,0,0,0-1.09-6.37c-1.06-1.8-4-3.76-7.42-6-4.79-3.18-8.77-6-8.95-8.06a1.53,1.53,0,0,1,.59-1.29,4.89,4.89,0,0,1,3.45-1c6.55,0,20.16,6.59,30,16.39.7.69,1.41,1.34,2.13,1.93l.77.63-1,.24c-6.85,1.76-12.51,3.18-17.9,4.23ZM227,399.6a4,4,0,0,0-2.76.78c-.3.28-.28.41-.28.47.15,1.77,5.38,5.24,8.5,7.31,3.52,2.34,6.56,4.35,7.73,6.35a10,10,0,0,1,1.37,6.38c4.89-1,10.05-2.27,16.15-3.83-.49-.43-1-.88-1.45-1.36C246.63,406.07,233.35,399.6,227,399.6Zm101.63,22.21c-4.19,0-9.41-1.9-14.87-5.54a29.87,29.87,0,0,0-10.34-4.71l-1.24-.28,1.1-.64c2.33-1.34,4.71-2.83,7.49-4.71l.39-.26.29.37a17.34,17.34,0,0,0,2.75,2.87c4,3.33,8.95,4.41,12.26,2.68,4.43-2.3,6.68-8,6.22-12L332.5,398l1.05,1.17c1.84,2.05,2.88,3.86,3.08,5.37,1.23,9.4,1.09,13.71-2.94,16A10,10,0,0,1,328.63,421.81Zm-23.79-10.92a31.88,31.88,0,0,1,9.48,4.55c7.64,5.09,14.7,6.7,18.87,4.28,3.54-2.05,3.62-6.11,2.44-15.05a8.18,8.18,0,0,0-1.9-3.74c-.13,4.16-2.53,9.32-6.8,11.55-3.67,1.91-9.05.78-13.37-2.8a18.29,18.29,0,0,1-2.62-2.66C308.72,408.51,306.75,409.76,304.84,410.89Zm-32.58,8.82a18.43,18.43,0,0,1-5.65-.86l-1.67-.54,1.7-.42c2.91-.73,5.33-1.33,7.64-1.86a121.13,121.13,0,0,1,17.59-3l2.92-.23-2.68,1.18C284.09,417.5,277.82,419.71,272.26,419.71Zm-3.47-1.33c5.58,1.09,11.79-.63,19.94-4.06A141.58,141.58,0,0,0,274.5,417C272.73,417.42,270.88,417.86,268.79,418.38Zm54.16-8a12.4,12.4,0,0,1-7.48-3,15.23,15.23,0,0,1-2.32-2.42l-.33-.41,1.68-1.16c5.48-3.79,9.8-6.78,13-6.78a2.9,2.9,0,0,1,3,2.5c.8,3.25-1.27,8.76-5,10.71A5.55,5.55,0,0,1,323,410.39Zm-8.68-5.64a14.46,14.46,0,0,0,1.84,1.85c3,2.49,6.78,3.47,9,2.33,3.28-1.71,5.23-6.7,4.52-9.6a1.91,1.91,0,0,0-2.06-1.73c-2.92,0-7.14,2.91-12.47,6.6Zm-43.65,1.69c-.41,0-.82,0-1.23-.05a13.86,13.86,0,0,1-10.93-6.45,1.8,1.8,0,0,1-.24-1.64c.95-2.82,7.94-5.62,14.11-8.1,6.55-2.62,12.19-4.88,13.39-7.76a3,3,0,0,0,0-2.33,2.48,2.48,0,0,0-1.56-1.42,4,4,0,0,0-1.24-.18c-3.73,0-10.33,3.66-20.75,9.69s-19.68,11.16-21.84,9.65a.77.77,0,0,1-.4-.64c-.13-2.21,4.95-6.85,11.1-12.25,7-6.12,11.22-10,11.22-12.9a1.8,1.8,0,0,0-1-1.81c-1.82-.82-5,1.76-12.39,8.3-3,2.68-7.17,6.35-9.4,7.68l-1.52.9.82-1.56c1.65-3.16,7.89-10.12,12.92-15.08,6.37-5.61,14.24-6,17.09-3.84l.11.08.05.13c.41,1-.72,3.41-4,8.63-2.25,3.55-3.38,5.34-2.6,6.48a1.53,1.53,0,0,0,1.68.54c1.95-.39,3.76-2.42,5.86-4.78,2.5-2.79,5.32-6,8.27-6,3.68,0,5.45.66,10.18,2.44,2.54,1,5.66,2.14,10.24,3.65a66.3,66.3,0,0,1,6.28,2.46l.94.42-.91.48c-7.33,3.86-17.1,15.54-17.51,16C282.4,403.22,276.5,406.44,270.62,406.44Zm12.3-28.93a4.72,4.72,0,0,1,1.55.23,3.47,3.47,0,0,1,2.17,2,3.91,3.91,0,0,1,0,3.11c-1.36,3.26-7.18,5.6-13.93,8.3-5.38,2.16-12.74,5.1-13.54,7.49a.81.81,0,0,0,.14.8,12.89,12.89,0,0,0,10.15,6c6,.44,12-2.66,17.13-8.78.4-.48,9.55-11.41,16.93-15.78-1.9-.81-3.67-1.49-5.27-2-4.6-1.52-7.74-2.7-10.26-3.65-4.63-1.74-6.35-2.39-9.85-2.39-2.5,0-5.17,3-7.52,5.62s-4.14,4.63-6.41,5.09a2.54,2.54,0,0,1-2.7-.95c-1.15-1.68.09-3.66,2.57-7.59,3.43-5.42,4-7.1,4-7.61-2.65-1.8-9.9-1.2-15.67,3.89A119.08,119.08,0,0,0,241,383.9c2.22-1.72,5.09-4.25,7.17-6.1,8-7.13,11.08-9.54,13.46-8.46a2.77,2.77,0,0,1,1.58,2.72c0,3.34-4.39,7.36-11.55,13.65C248,389,241.08,395,240.93,397c2.1,1.08,15.11-6.45,20.7-9.68C272.23,381.22,278.94,377.51,282.92,377.51Zm28.83,25.33-.25-.51c-1.9-3.84-2.12-8.24-.66-13.09a22.7,22.7,0,0,0,1-4.7l0-.78.69.37a111.83,111.83,0,0,1,15,9.58l1.08.84-1.36.06c-3.79.17-8.23,3.24-13.86,7.12Zm1-17.47a24.39,24.39,0,0,1-.94,4.16,16.63,16.63,0,0,0,.35,11.83l.65-.45c5.17-3.57,9.36-6.47,13.12-7.15A112.34,112.34,0,0,0,312.73,385.37Z" style="fill: rgb(38, 50, 56); transform-origin: 274.148px 394.521px;" id="eljjbdqxl7lwe" class="animable"></path><path d="M317.6,422.87a24.2,24.2,0,0,0,9.1-1.52c5.72-2.31,7.47-5.81,7.94-8.33a11.79,11.79,0,0,0-3.39-10,2.59,2.59,0,0,0-2-.72c-2.07.18-4,2.7-6.64,6.18-2.51,3.28-5.62,7.36-9,9.32-2.36,1.35-4.22,1.72-5,1s-.63-2.95.38-4.68c.68-1.16,3.49-3,6-4.67,4.51-3,8.77-5.82,9-8.92a3.58,3.58,0,0,0-1.22-3c-2.77-2.63-8.38-1.69-14.51,1a2.9,2.9,0,0,0,.49-1.47c.17-3-4-6.86-10.75-12.83-3.34-2.92-7.72-6.77-9-8.92a83.8,83.8,0,0,1,7.95,6.54c7.31,6.47,10.25,8.81,12.2,7.67a2,2,0,0,0,1-1.53c.43-3.38-8.73-12.8-12.69-16.7l0,0c-5-4.45-13.76-7-18.28-3.51-2.61,2,.23,6.51,3,10.87l.56.89c-.48-.51-1-1.05-1.43-1.57-2.55-2.86-5.45-6.1-9.1-6.1s-5.67.73-9.95,2.34c-2.24.85-5,1.9-9.11,3.25a73.19,73.19,0,0,0-8.75,3.64,3.09,3.09,0,0,0-1.2.35,2.68,2.68,0,0,0-.84.67c-11.37,5.8-24.11,14.77-24.95,21.15-1,7.89-1.37,13.7,3.74,16.66,4.88,2.83,12.28,1.38,20.29-4a23.94,23.94,0,0,1,11.92-4.39c.71.36,1.44.71,2.18,1,11,5,21.53,9.85,31.12,4.44l1.32.34C299.2,420.26,309.41,422.87,317.6,422.87ZM329.44,405a9.1,9.1,0,0,1,2.54,7.55c-.49,2.71-2.61,4.83-6.29,6.32-2.95,1.2-6.58,1.51-10.74,1.24,3.84-2.23,7.12-6.53,9.76-10C326.26,408.08,328.59,405,329.44,405Zm-11.33-6.35a4,4,0,0,1,2.78.83c.43.4.41.66.39.79-.15,1.8-4.59,4.75-7.84,6.9s-5.8,3.86-6.8,5.56a8.21,8.21,0,0,0-1,6.08c-5-1-10.36-2.33-16.07-3.79a24.21,24.21,0,0,0,1.95-1.76C300.24,404.49,312.27,398.63,318.11,398.63Zm-68.8,10.77a27.55,27.55,0,0,0-9.44,4.29c-7,4.68-13.54,6.13-17.44,3.87-3.4-2-3.49-5.73-2.41-14a9.49,9.49,0,0,1,2.65-4.58c-.44,3.83,1.77,9.15,5.83,11.26,3.14,1.63,7.77.64,11.52-2.47a16.22,16.22,0,0,0,2.54-2.64C244.63,406.54,246.88,408,249.31,409.4ZM282.37,416c-6.32,2-13.41-.32-22.61-4.39a106.78,106.78,0,0,1,15.75,2.72C277.82,414.82,280.11,415.39,282.37,416Zm22.93-16a67.31,67.31,0,0,0-15.71,11.38,21.35,21.35,0,0,1-3.42,2.81c-3.28-.84-6.64-1.69-10.05-2.48-10.1-2.36-17-3.22-22.33-2.89a96.33,96.33,0,0,1-9.79-5.9,18.23,18.23,0,0,0,.9-13.75c-.94-3.12-.84-4.46-.67-5l.82-.41c2.44.33,9.43,5.53,17.08,14.71,5.25,6.3,11.65,9.5,18.05,9a14.76,14.76,0,0,0,11.58-6.88,3.93,3.93,0,0,0,.42-3.35c-1.19-3.52-7.41-6-14-8.65-4.49-1.8-10.07-4-10.79-5.75a.41.41,0,0,1,0-.36c1.6-1.14,12.25,5,18,8.34,9.47,5.49,16.07,9.17,19.87,9.17Zm-65,3.67a13.77,13.77,0,0,1-2,2.1c-2.84,2.35-6.44,3.25-8.56,2.15-3.2-1.67-5-6.36-4.29-9.13a2.14,2.14,0,0,1,2.29-1.9c2.77,0,6.61,2.65,11.47,6Zm27.53-23.95a4.07,4.07,0,0,0-1.26.19,2.71,2.71,0,0,0-1.68,1.53,3.13,3.13,0,0,0,0,2.44c1.15,2.77,6.31,4.83,12.28,7.22,5.19,2.08,11.64,4.67,12.43,7a1.21,1.21,0,0,1-.17,1.1,12,12,0,0,1-9.48,5.58c-5.49.42-11.1-2.43-15.77-8-.48-.58-9.24-11-15.88-14.52a57.93,57.93,0,0,1,5.61-2.2c4.13-1.37,6.95-2.43,9.21-3.28,4.2-1.58,5.77-2.18,9-2.18,2.45,0,4.92,2.77,7.09,5.21,1.95,2.17,3.62,4,5.52,4.43a1.82,1.82,0,0,0,2-.67c.87-1.27-.2-3-2.33-6.32-1.19-1.89-4-6.32-3.57-7.35,2.42-1.84,9.24-1.46,14.78,3.42,4.93,4.86,10.15,10.81,11.53,13.44-2-1.17-5.73-4.51-8.38-6.85-6.94-6.15-9.74-8.39-11.62-7.54a2.07,2.07,0,0,0-1.16,2c0,2.81,3.89,6.36,10.23,11.93,4,3.47,9.95,8.72,9.84,10.65,0,.07,0,.12-.17.23-1.88,1.31-12.69-4.95-19.15-8.69C277.53,383.13,271.36,379.67,267.85,379.67Zm-26.42,5.91a20,20,0,0,0,.89,4.32c1.5,5,.76,8.76-.56,11.43-.35-.23-.69-.47-1-.7-5.1-3.52-9.16-6.33-12.69-6.48A98.83,98.83,0,0,1,241.43,385.58Z" style="fill: rgb(255, 255, 255); transform-origin: 275.775px 394.514px;" id="elw59o8wvkego" class="animable"></path><path d="M317.6,423.37h0c-8.26,0-18.73-2.68-29.81-5.52l-1.13-.29c-9.76,5.38-20.27.57-31.4-4.52q-1-.48-2.07-1a23.32,23.32,0,0,0-11.54,4.3c-8.18,5.45-15.76,6.9-20.82,4-5.38-3.11-5-9.07-4-17.15.84-6.4,13.21-15.4,25.12-21.49a3.41,3.41,0,0,1,.92-.72,3.51,3.51,0,0,1,1.31-.39,75.14,75.14,0,0,1,8.72-3.63c4.1-1.35,6.87-2.4,9.1-3.23,4.33-1.64,6.31-2.38,10.12-2.38,2.89,0,5.28,1.85,7.4,4-1.86-3.32-2.91-6.32-.71-8,4.7-3.61,13.74-1,18.91,3.53,5.06,5,13.35,13.72,12.91,17.18a2.52,2.52,0,0,1-1.24,1.91c-2.24,1.31-5.12-1-12.78-7.74-1.09-1-2.42-2.14-3.74-3.26,1.71,1.64,3.72,3.41,5.41,4.89,6.92,6.07,11.11,10,10.93,13.24a4,4,0,0,1-.06.5c6.49-2.68,11.41-2.84,13.93-.45a4.06,4.06,0,0,1,1.37,3.39c-.29,3.33-4.65,6.22-9.26,9.28-2.31,1.54-5.19,3.45-5.81,4.52-1,1.63-1,3.49-.45,4.07s2,.32,4.36-1c3.3-1.9,6.38-5.94,8.86-9.19,2.74-3.58,4.71-6.17,7-6.37a3.14,3.14,0,0,1,2.43.85,12.32,12.32,0,0,1,3.54,10.47c-.49,2.64-2.31,6.31-8.24,8.71A24.71,24.71,0,0,1,317.6,423.37Zm-31.08-6.88,1.52.39c11,2.83,21.42,5.49,29.56,5.49a23.5,23.5,0,0,0,8.91-1.48c5.52-2.23,7.2-5.56,7.63-8a11.18,11.18,0,0,0-3.23-9.55,2.06,2.06,0,0,0-1.66-.59c-1.84.16-3.7,2.6-6.28,6s-5.68,7.44-9.16,9.45c-2.65,1.52-4.63,1.84-5.57.88s-.84-3.34.29-5.28c.75-1.26,3.48-3.08,6.13-4.84,4.4-2.92,8.56-5.68,8.81-8.54a3.11,3.11,0,0,0-1.06-2.58c-2.36-2.23-7.31-1.83-14,1.13l-1.59.71v0l-1.33.71a67.15,67.15,0,0,0-15.59,11.29,21.52,21.52,0,0,1-3.5,2.87l-.19.12-.21-.05c-3.16-.81-6.56-1.66-10-2.47-9.95-2.32-16.79-3.22-22.19-2.88h-.14l-.12-.07a96,96,0,0,1-9.84-5.93l-.37-.25.21-.39a17.84,17.84,0,0,0,.86-13.38c-.94-3.12-.88-4.6-.67-5.29l.07-.2.18-.1.83-.41.13-.06.15,0c2.77.37,10,6,17.4,14.88,5.14,6.17,11.41,9.31,17.63,8.83a14.22,14.22,0,0,0,11.19-6.64,3.41,3.41,0,0,0,.37-2.93c-1.11-3.31-7.22-5.75-13.69-8.35-5.82-2.33-10.33-4.25-11.07-6a.87.87,0,0,1,0-.74l.05-.13.11-.08c1.56-1.12,7.94,2.19,18.45,8.27,9.56,5.54,16.06,9.14,19.69,9.14H307l.82-1.2a2.46,2.46,0,0,0,.4-1.22c.16-2.79-4.09-6.73-10.58-12.42-3.47-3.05-7.78-6.83-9.07-9.05l-1-1.75,1.71,1.07a87.43,87.43,0,0,1,8,6.59c7,6.17,10,8.59,11.62,7.62a1.52,1.52,0,0,0,.75-1.16c.27-2.19-4.42-8.27-12.55-16.28-4.91-4.34-13.35-6.84-17.67-3.52-2.25,1.74.47,6,3.1,10.21l3.17,5.07-3.4-3.57c-.48-.51-1-1-1.44-1.58-2.48-2.78-5.3-5.93-8.73-5.93-3.63,0-5.55.72-9.77,2.31-2.24.84-5,1.89-9.13,3.25a75.41,75.41,0,0,0-8.69,3.62l-.18.05a2.48,2.48,0,0,0-1,.29,2.14,2.14,0,0,0-.7.56l-.16.12c-11.71,6-23.88,14.71-24.67,20.77-1,7.69-1.35,13.35,3.49,16.16s11.92,1.29,19.76-3.94A24.25,24.25,0,0,1,253.24,411h.14l.13.06c.71.36,1.43.71,2.17,1,10.95,5,21.29,9.75,30.66,4.46Zm-30.45-8.29c5.12,0,11.48.95,20.17,3,3.4.8,6.73,1.64,9.84,2.43a22.42,22.42,0,0,0,3.15-2.62,67.67,67.67,0,0,1,14.4-10.7c-3-.57-7.1-2.6-12.68-5.73a6.28,6.28,0,0,1,1.7,2.49,4.41,4.41,0,0,1-.46,3.76,15.25,15.25,0,0,1-12,7.13c-6.55.51-13.12-2.76-18.48-9.19-7.69-9.23-14.36-14-16.62-14.51l-.46.23c-.09.53-.1,1.79.72,4.51a18.94,18.94,0,0,1-.74,13.73,96.81,96.81,0,0,0,9.25,5.56C254.6,408.22,255.32,408.2,256.07,408.2Zm11.85-25.43c.92,1.5,6.64,3.78,10.46,5.31,1.54.62,3.07,1.24,4.52,1.86C278.06,387.16,269.76,382.53,267.92,382.77Zm49.66,37.91c-.85,0-1.74,0-2.66-.09l-1.64-.1,1.42-.83c3.75-2.18,7-6.43,9.61-9.85,2.73-3.58,4.19-5.29,5.11-5.33h.21l.16.14a9.54,9.54,0,0,1,2.68,8c-.52,2.89-2.74,5.14-6.59,6.7A22.18,22.18,0,0,1,317.58,420.68Zm-1.05-1a22.14,22.14,0,0,0,9-1.28c3.51-1.42,5.53-3.42,6-5.95a8.57,8.57,0,0,0-2.19-6.89c-.88.51-3.17,3.52-4.19,4.85C322.75,413.5,319.88,417.26,316.53,419.67Zm-10.21-.23-.81-.15c-4.84-1-10.15-2.28-16.09-3.81l-1-.24.77-.63a25.09,25.09,0,0,0,1.91-1.73c8.82-8.82,21.06-14.75,27-14.75a4.43,4.43,0,0,1,3.13,1,1.34,1.34,0,0,1,.54,1.19c-.16,1.89-3.75,4.42-8.06,7.28-3.07,2-5.71,3.79-6.65,5.39a7.76,7.76,0,0,0-1,5.7Zm-15.72-4.68c5.25,1.34,10,2.52,14.36,3.4a9.07,9.07,0,0,1,1.25-5.7c1.05-1.8,3.79-3.62,7-5.72,2.8-1.86,7.49-5,7.63-6.53,0,0,0-.15-.24-.39a3.56,3.56,0,0,0-2.44-.69c-5.71,0-17.62,5.81-26.26,14.46C291.44,414,291,414.39,290.6,414.76Zm-63.84,4.34a9.08,9.08,0,0,1-4.58-1.11c-3.65-2.11-3.77-6-2.66-14.47.18-1.37,1.12-3,2.78-4.86l1-1.17-.18,1.56c-.41,3.57,1.6,8.71,5.56,10.77,3,1.54,7.37.57,11-2.41a15.72,15.72,0,0,0,2.46-2.57l.29-.37.39.26c2.5,1.69,4.64,3,6.72,4.23l1.11.64-1.24.28a27,27,0,0,0-9.28,4.23C235.24,417.38,230.54,419.1,226.76,419.1Zm-4.63-18.68a7.2,7.2,0,0,0-1.62,3.23c-1,8-1,11.65,2.17,13.47,3.74,2.17,10.06.73,16.92-3.85a28.79,28.79,0,0,1,8.41-4.06c-1.67-1-3.4-2.09-5.34-3.39a16.76,16.76,0,0,1-2.33,2.36c-3.91,3.23-8.76,4.25-12.07,2.52C224.46,408.72,222.29,404.15,222.13,400.42Zm55.29,16.79c-5,0-10.64-2-17.86-5.19l-2.67-1.18,2.91.23a108.39,108.39,0,0,1,15.82,2.73q3.48.81,6.87,1.67l1.7.43-1.67.53A16.42,16.42,0,0,1,277.42,417.21ZM263,412.41c7,2.94,12.47,4.42,17.33,3.55-1.63-.41-3.27-.8-4.91-1.19C270.57,413.65,266.47,412.86,263,412.41Zm-31.12-3.58a5.08,5.08,0,0,1-2.35-.52c-3.45-1.8-5.28-6.69-4.54-9.69a2.65,2.65,0,0,1,2.77-2.28c2.92,0,6.82,2.69,11.75,6.1l1.55,1.07-.32.42a14.4,14.4,0,0,1-2.1,2.17A11.15,11.15,0,0,1,231.86,408.83Zm-4.12-11.49c-.74,0-1.48.18-1.8,1.52-.63,2.58,1.1,7,4,8.56,1.92,1,5.36.1,8-2.09a12.81,12.81,0,0,0,1.61-1.6l-.67-.47C234.13,400,230.35,397.34,227.74,397.34Zm51.16,7.94c-5.3,0-10.61-2.9-15.08-8.26-.37-.45-9.15-10.94-15.73-14.4l-.91-.48.94-.42c2-.91,3.94-1.65,5.65-2.22,4.13-1.37,6.94-2.42,9.2-3.27,4.26-1.61,5.85-2.21,9.17-2.21,2.67,0,5.22,2.86,7.47,5.37,1.88,2.11,3.51,3.93,5.24,4.28a1.3,1.3,0,0,0,1.45-.46c.66-1-.24-2.46-2.33-5.77-3-4.77-4-6.88-3.61-7.81l.05-.12.11-.09c2.57-2,9.69-1.6,15.41,3.45,4.54,4.47,10.15,10.74,11.64,13.58l.82,1.56-1.52-.9a80.93,80.93,0,0,1-8.46-6.91c-6.47-5.73-9.48-8.17-11.08-7.45a1.56,1.56,0,0,0-.86,1.58c0,2.54,3.8,6.06,10.06,11.55,5.55,4.87,10.12,9.05,10,11.06a.77.77,0,0,1-.38.61c-1.79,1.25-8.57-2.23-19.67-8.65-9.38-5.44-15.3-8.73-18.64-8.73a3.6,3.6,0,0,0-1.1.16,2.22,2.22,0,0,0-1.38,1.26,2.61,2.61,0,0,0,0,2.05c1.07,2.57,6.14,4.6,12,6.95,5.57,2.23,11.86,4.75,12.72,7.31a1.66,1.66,0,0,1-.21,1.51,12.54,12.54,0,0,1-9.87,5.83C279.64,405.27,279.27,405.28,278.9,405.28Zm-29.46-23c6.62,4,14.78,13.72,15.14,14.15,4.57,5.48,10,8.27,15.35,7.86A11.52,11.52,0,0,0,289,398.9c.23-.38.17-.56.13-.68-.72-2.12-7.32-4.77-12.14-6.7-6.08-2.44-11.33-4.54-12.56-7.49a3.57,3.57,0,0,1,0-2.83,3.18,3.18,0,0,1,2-1.81c3.34-1.11,9.66,2.33,20.54,8.63,5,2.92,16.76,9.7,18.56,8.74-.2-1.83-6.32-7.2-9.64-10.11-6.66-5.84-10.42-9.29-10.42-12.32a2.53,2.53,0,0,1,1.45-2.49c2.17-1,4.9,1.18,12.16,7.61,1.78,1.58,4.2,3.72,6.15,5.26a109.87,109.87,0,0,0-10-11.11c-5.14-4.53-11.6-5.07-14-3.49,0,.47.52,2,3.54,6.78,2.25,3.56,3.38,5.35,2.32,6.88a2.3,2.3,0,0,1-2.48.88c-2.06-.41-3.78-2.35-5.79-4.58s-4.5-5.05-6.72-5.05c-3.14,0-4.68.59-8.82,2.14-2.27.86-5.08,1.92-9.24,3.29C252.66,380.92,251.1,381.52,249.44,382.23ZM242,402.07l-1.5-1c-5-3.49-9-6.24-12.43-6.39l-1.36-.06,1.08-.84a101.89,101.89,0,0,1,13.45-8.61l.69-.38.05.79a19.26,19.26,0,0,0,.87,4.2c1.32,4.38,1.12,8.35-.6,11.81Zm-12.62-8.27c3.35.66,7.09,3.24,11.69,6.42l.53.37a14.89,14.89,0,0,0,.29-10.55,22.52,22.52,0,0,1-.83-3.66A101.55,101.55,0,0,0,229.33,393.8Z" style="fill: rgb(38, 50, 56); transform-origin: 275.733px 394.518px;" id="eluuskmbqys2r" class="animable"></path><path d="M309.84,425.87c-7.26,0-16.26-2.46-24.55-6.77-7.16-3.72-14.4-6.32-36.53-3.11-16.45,2.37-29.5.23-31.75-5.22-.77-1.86-.67-4.85,4.2-8.47,11.71-8.7,34.39-2.52,58.4,4l2.9.79c23.63,6.42,39.56,6.88,44.87,1.31a8.89,8.89,0,0,0,1.85-9.31,10,10,0,0,0-8.38-6.59c-4.84-.6-8.48,2-13.09,5.2a53.58,53.58,0,0,1-13.56,7.5c-8.22,2.87-17.74.85-20.36-4.33-.87-1.72-2.09-6.27,5.35-11.39s14.77-6.09,20.19-6.84c4.83-.66,7.6-1.14,8.37-3.16a4.06,4.06,0,0,0-.52-4.18c-2.09-2.69-7.33-4-13.35-3.3A37.24,37.24,0,0,0,283,374.9c-2.47,1-4.41,1.78-6.86,1.26a7,7,0,0,1-5.64-6.11V263.27a1.5,1.5,0,0,1,3,0V369.86a4,4,0,0,0,3.27,3.36c1.55.34,2.89-.21,5.11-1.1A40.49,40.49,0,0,1,293.53,369c7.15-.82,13.31.88,16.07,4.44a7.09,7.09,0,0,1,1,7.09c-1.44,3.78-5.56,4.35-10.77,5.07-5.41.74-12.14,1.67-18.9,6.33-2.27,1.56-5.86,4.63-4.37,7.56,1.73,3.41,9.4,5.4,16.69,2.86A50.86,50.86,0,0,0,306,395.26c4.94-3.47,9.21-6.47,15.19-5.72a13.11,13.11,0,0,1,10.83,8.56,12,12,0,0,1-2.5,12.38c-6.28,6.6-22.37,6.44-47.83-.47l-2.89-.79c-22.27-6.07-45.3-12.34-55.83-4.51-1.5,1.12-3.91,3.24-3.22,4.92,1.41,3.41,12.73,5.68,28.55,3.39,23-3.33,30.7-.56,38.34,3.42,6.67,3.47,16.76,7,25.05,6.37a1.5,1.5,0,0,1,1.61,1.39,1.51,1.51,0,0,1-1.39,1.6C311.26,425.85,310.55,425.87,309.84,425.87Z" style="fill: rgb(255, 255, 255); transform-origin: 274.711px 343.82px;" id="elc6isa5onix8" class="animable"></path><path d="M309.83,426.37c-7.39,0-16.42-2.49-24.77-6.83-7.08-3.68-14.24-6.24-36.23-3.06-16.93,2.45-29.91.23-32.28-5.52-.84-2-.77-5.25,4.36-9.06,11.7-8.7,33.92-2.84,57.6,3.6a10,10,0,0,1-5.12-4.38c-.93-1.84-2.25-6.68,5.51-12,7.45-5.12,14.94-6.16,20.41-6.91,4.65-.64,7.31-1.09,8-2.84a3.59,3.59,0,0,0-.45-3.7c-2-2.56-7.06-3.79-12.91-3.11a37.06,37.06,0,0,0-10.72,2.84c-2.55,1-4.56,1.84-7.16,1.29a7.52,7.52,0,0,1-6-6.56V263.27a2,2,0,0,1,4,0V369.86a3.43,3.43,0,0,0,2.87,2.87c1.4.31,2.6-.18,4.79-1.07a41.21,41.21,0,0,1,11.8-3.12c7.32-.83,13.65.94,16.52,4.64a7.55,7.55,0,0,1,1,7.57c-1.54,4.05-5.79,4.64-11.17,5.38s-12,1.66-18.68,6.25c-2.14,1.47-5.53,4.33-4.21,6.93,1.61,3.16,9.14,5,16.09,2.61a50.54,50.54,0,0,0,12.69-7.06c5-3.54,9.38-6.59,15.55-5.81a13.57,13.57,0,0,1,11.23,8.88,12.5,12.5,0,0,1-2.6,12.9c-6.42,6.74-22.68,6.62-48.33-.34l-2.9-.79c-22.15-6-45.05-12.28-55.39-4.59-2.32,1.73-3.46,3.34-3.06,4.33,1.17,2.82,11.56,5.47,28,3.08,23.16-3.35,30.91-.54,38.64,3.48,6.62,3.44,16.6,6.9,24.79,6.31a2,2,0,0,1,2.13,1.85,2,2,0,0,1-.48,1.46,2,2,0,0,1-1.37.68c-.68.05-1.4.07-2.13.07h0ZM265.78,414c9.8,0,14.79,2,19.74,4.62,8.21,4.27,17.07,6.71,24.31,6.71h0c.71,0,1.4,0,2.06-.07a1,1,0,0,0,.93-1.07,1,1,0,0,0-.35-.69,1,1,0,0,0-.72-.23c-8.38.61-18.58-2.92-25.32-6.43-7.57-3.93-15.17-6.68-38-3.37-16.27,2.36-27.57,0-29.08-3.69-.78-1.9,1.41-4,3.38-5.51,10.73-8,33.88-1.67,56.26,4.42l2.9.79c25.26,6.86,41.19,7.07,47.33.62a11.49,11.49,0,0,0,2.39-11.88A12.58,12.58,0,0,0,321.16,390c-5.79-.73-10,2.22-14.83,5.62a50.92,50.92,0,0,1-12.95,7.2c-7.53,2.63-15.49.49-17.31-3.1-1.23-2.43.38-5.34,4.54-8.2,6.85-4.73,13.65-5.67,19.11-6.42,5-.69,9-1.24,10.37-4.75a6.58,6.58,0,0,0-.88-6.6c-2.66-3.42-8.65-5.05-15.62-4.25a40.07,40.07,0,0,0-11.51,3c-2.24.91-3.7,1.5-5.4,1.13a4.43,4.43,0,0,1-3.66-3.79V263.27a1,1,0,0,0-2,0V369.94a6.5,6.5,0,0,0,5.24,5.73c2.3.49,4.18-.27,6.57-1.24a38.22,38.22,0,0,1,11-2.91c6.19-.7,11.61.67,13.81,3.5a4.54,4.54,0,0,1,.59,4.66c-.87,2.28-3.75,2.79-8.78,3.48-5.37.74-12.72,1.76-20,6.75s-6,9.15-5.18,10.75c2.52,5,11.74,6.88,19.74,4.09a52.78,52.78,0,0,0,13.43-7.44c4.71-3.31,8.43-5.92,13.45-5.29a10.48,10.48,0,0,1,8.79,6.92,9.38,9.38,0,0,1-2,9.82c-5.44,5.72-21.55,5.3-45.36-1.17l-2.9-.79c-23.9-6.51-46.46-12.65-58-4.09-3.65,2.71-5,5.43-4,7.87,2.13,5.16,15.26,7.22,31.22,4.91A120.65,120.65,0,0,1,265.78,414Zm17.52-7.23c23.08,6.19,38.59,6.65,43.72,1.26a8.42,8.42,0,0,0,1.74-8.8,9.5,9.5,0,0,0-8-6.26c-4.65-.57-8.22,1.94-12.74,5.11-3.72,2.61-7.92,5.56-13.69,7.57A24.07,24.07,0,0,1,283.3,406.81Z" style="fill: rgb(38, 50, 56); transform-origin: 274.74px 343.82px;" id="elncro0ccbzom" class="animable"></path><polygon points="332.16 429.16 211.49 429.16 199.42 419.26 344.23 419.26 332.16 429.16" style="fill: rgb(255, 255, 255); transform-origin: 271.825px 424.21px;" id="el6ihfq5m99bs" class="animable"></polygon><path d="M332.16,429.66H211.49a.47.47,0,0,1-.32-.12l-12.07-9.89a.51.51,0,0,1,.32-.89H344.23a.51.51,0,0,1,.32.89l-12.07,9.89A.47.47,0,0,1,332.16,429.66Zm-120.49-1H332l10.84-8.9h-142Z" style="fill: rgb(38, 50, 56); transform-origin: 271.825px 424.21px;" id="ela536lz3s6au" class="animable"></path></g><defs>     <filter id="active" height="200%">         <feMorphology in="SourceAlpha" result="DILATED" operator="dilate" radius="2"></feMorphology>                <feFlood flood-color="#32DFEC" flood-opacity="1" result="PINK"></feFlood>        <feComposite in="PINK" in2="DILATED" operator="in" result="OUTLINE"></feComposite>        <feMerge>            <feMergeNode in="OUTLINE"></feMergeNode>            <feMergeNode in="SourceGraphic"></feMergeNode>        </feMerge>    </filter>    <filter id="hover" height="200%">        <feMorphology in="SourceAlpha" result="DILATED" operator="dilate" radius="2"></feMorphology>                <feFlood flood-color="#ff0000" flood-opacity="0.5" result="PINK"></feFlood>        <feComposite in="PINK" in2="DILATED" operator="in" result="OUTLINE"></feComposite>        <feMerge>            <feMergeNode in="OUTLINE"></feMergeNode>            <feMergeNode in="SourceGraphic"></feMergeNode>        </feMerge>            <feColorMatrix type="matrix" values="0   0   0   0   0                0   1   0   0   0                0   0   0   0   0                0   0   0   1   0 "></feColorMatrix>    </filter></defs></svg>